SplineFontDB: 3.0
FontName: Lment-v02
FullName: Lment-v02
FamilyName: Lment-v02
Weight: Medium
Copyright: Created with FontForge 2.0 (http://fontforge.sf.net)
Version: 001.000
ItalicAngle: 0
UnderlinePosition: -100
UnderlineWidth: 50
Ascent: 800
Descent: 200
sfntRevision: 0x00010000
LayerCount: 2
Layer: 0 0 "Arri+AOgA-re"  1
Layer: 1 0 "Avant"  0
NeedsXUIDChange: 1
XUID: [1021 112 18547 3055]
FSType: 8
OS2Version: 3
OS2_WeightWidthSlopeOnly: 0
OS2_UseTypoMetrics: 1
CreationTime: 1310979219
ModificationTime: 1311428011
PfmFamily: 17
TTFWeight: 500
TTFWidth: 5
LineGap: 90
VLineGap: 0
Panose: 2 0 6 3 0 0 0 0 0 0
OS2TypoAscent: 0
OS2TypoAOffset: 1
OS2TypoDescent: 0
OS2TypoDOffset: 1
OS2TypoLinegap: 90
OS2WinAscent: 0
OS2WinAOffset: 1
OS2WinDescent: 0
OS2WinDOffset: 1
HheadAscent: 0
HheadAOffset: 1
HheadDescent: 0
HheadDOffset: 1
OS2SubXSize: 650
OS2SubYSize: 699
OS2SubXOff: 0
OS2SubYOff: 140
OS2SupXSize: 650
OS2SupYSize: 699
OS2SupXOff: 0
OS2SupYOff: 479
OS2StrikeYSize: 49
OS2StrikeYPos: 258
OS2Vendor: 'PfEd'
OS2CodePages: 00000001.00000000
OS2UnicodeRanges: 00000003.00000000.00000000.00000000
Lookup: 4 0 0 "www"  {} []
MarkAttachClasses: 1
DEI: 91125
LangName: 1033 "" "" "" "FontForge 2.0 : Lment-v02 : 19-7-2011" 
Encoding: UnicodeBmp
UnicodeInterp: none
NameList: Adobe Glyph List
DisplaySize: -24
AntiAlias: 1
FitToEm: 1
WinInfo: 0 38 19
BeginPrivate: 8
BlueValues 15 [-16 0 591 603]
BlueScale 8 0.039625
BlueShift 1 6
StdHW 4 [60]
StdVW 4 [60]
StemSnapH 32 [53 55 58 59 60 61 62 65 67 165]
StemSnapV 19 [58 59 60 62 65 68]
ExpansionFactor 4 0.06
EndPrivate
BeginChars: 65538 141

StartChar: .notdef
Encoding: 65536 -1 0
Width: 500
Flags: MW
HStem: 0 50<100 400 100 450> 483 50<100 400 100 100>
VStem: 50 50<50 50 50 483> 400 50<50 483 483 483>
LayerCount: 2
Fore
SplineSet
50 0 m 1
 50 533 l 1
 450 533 l 1
 450 0 l 1
 50 0 l 1
100 50 m 1
 400 50 l 1
 400 483 l 1
 100 483 l 1
 100 50 l 1
EndSplineSet
Validated: 1
EndChar

StartChar: exclam
Encoding: 33 33 1
Width: 342
GlyphClass: 2
Flags: MW
HStem: 0 165<73 268 73 133 208 208 208 268> 105 60<133 208 133 133> 531 60<133 208 133 133>
VStem: 73 60<0 105 0 165 219.375 531> 208 60<0 105 105 105 219.375 531 531 531>
LayerCount: 2
Fore
SplineSet
73 0 m 1xb8
 73 165 l 1
 268 165 l 1
 268 0 l 1
 208 0 l 1xb8
 208 105 l 1
 133 105 l 1x78
 133 0 l 1
 73 0 l 1xb8
73 219.375 m 1
 73 591 l 1
 268 591 l 1
 268 219.375 l 1
 208 219.375 l 1
 208 531 l 1
 133 531 l 1
 133 219.375 l 1
 73 219.375 l 1
EndSplineSet
Validated: 1
EndChar

StartChar: dollar
Encoding: 36 36 2
Width: 573
GlyphClass: 2
Flags: MW
HStem: -10 60 141.875 60 177.5 60 314.062 60 427.125 60<415.438 498.688 415.438 498.688 402.125 498.688> 580 20G<234.649 308.032> 580 20G<234.649 308.032>
VStem: 112.812 60 131.188 60 224.001 59.999 342.125 60<373.125 427.125 356.438 506.062> 453.125 60
LayerCount: 2
Fore
SplineSet
273.875 600 m 0xdcf0
 342.189 600 401.293 551.824 415.438 487.125 c 1
 498.688 487.125 l 1
 498.688 427.125 l 1
 402.125 427.125 l 1
 402.125 356.438 l 1
 467.604 325.897 513.124 249.09 513.124 172.438 c 0
 513.124 67.3076 425.485 -10.001 322.249 -10.001 c 2
 322.067 -10.001 l 2
 229.104 -10.001 149.475 52.999 134.374 142.249 c 1
 59.375 141.874 l 1
 59 201.874 l 1
 175.812 202.624 l 1
 137.948 228.37 112.812 281.612 112.812 330.562 c 0xdd70
 112.812 360.756 122.356 389.139 138.5 412.312 c 1
 133.782 426.422 131.188 441.475 131.188 457.125 c 0
 131.188 535.582 195.424 600 273.875 600 c 0xdcf0
284 539.438 m 1
 284 374.062 l 1
 322.812 374.062 l 2
 329.299 374.039 335.803 373.793 342.125 373.125 c 1
 342.125 506.062 l 1
 328.42 524.038 307.502 536.618 284 539.438 c 1
224.001 523.312 m 1
 204.084 508.23 191.188 484.283 191.188 457.125 c 0x98f0
 191.188 429.955 204.084 406.072 224.001 390.938 c 1
 224.001 523.312 l 1
176.188 353.812 m 1
 174.26 347.039 173.186 338.735 172.81 330.562 c 0
 172.81 284.514 209.461 237.5 255.499 237.5 c 2
 304.623 237.5 l 2xb970
 364.482 237.277 417.996 208.843 452.937 165.312 c 1
 453.048 167.662 453.124 170.035 453.124 172.438 c 0
 453.124 245.164 394.958 314.062 322.249 314.062 c 2
 273.124 314.062 l 2
 235.653 314.251 201.635 329.843 176.188 353.812 c 1
191.186 193.438 m 1x98f0
 191.185 172.437 l 2
 191.185 138.656 203.46 109.806 223.998 88.624 c 1
 223.998 181.249 l 1
 212.489 184.032 201.479 188.188 191.186 193.438 c 1x98f0
283.996 177.498 m 1xb870
 283.996 54.6855 l 1
 296.031 51.6152 308.811 49.998 322.246 49.998 c 0
 329.002 49.998 335.693 50.5195 342.121 51.3105 c 1
 342.121 171.687 l 1
 330.068 175.365 317.148 177.498 303.871 177.498 c 2
 283.996 177.498 l 1xb870
402.121 132.873 m 1
 402.121 73.248 l 1
 411.004 79.2949 418.92 86.3496 425.752 94.4365 c 1
 420.115 108.609 412.076 121.582 402.121 132.873 c 1
EndSplineSet
Validated: 1
EndChar

StartChar: zero
Encoding: 48 48 3
Width: 722
GlyphClass: 2
Flags: MW
HStem: -10 60 540 60
VStem: 61 60<276.552 356.453 276.552 372.667> 601 60<223.543 305.817>
LayerCount: 2
Fore
SplineSet
361 -10 m 0
 304.188 -10 250.728 5.81934 205.376 33.3584 c 2
 172.798 53.2803 l 1
 597.72 488.202 l 1
 617.642 455.624 l 2
 645.197 410.272 661 346.807 661 290 c 0
 661 124.666 526.34 -10 361 -10 c 0
361 49.999 m 0
 493.914 49.999 601 157.086 601 290 c 0
 601 321.635 594.484 351.5 583.422 379.062 c 1
 271.938 67.5771 l 1
 299.5 56.5146 329.371 49.999 361 49.999 c 0
117.016 110.938 m 1
 97.7969 146.094 l 2
 74.4238 188.791 61 237.986 61 290 c 0
 61 455.334 195.684 600 361 600 c 0
 413.014 600 462.196 586.588 504.905 563.203 c 2
 540.062 543.984 l 1
 117.016 110.938 l 1
134.828 213.828 m 1
 437.172 526.171 l 1
 413.113 534.292 387.9 539.999 361 539.999 c 0
 228.109 539.999 121 422.907 121 289.999 c 0
 121 263.104 126.707 237.881 134.828 213.828 c 1
EndSplineSet
Validated: 1
EndChar

StartChar: one
Encoding: 49 49 4
Width: 570
GlyphClass: 2
Flags: MW
HStem: 0 21G<304.578 304.578 304.578 364.578 435.359 435.359 435.359 495.359> 0 21G<304.578 304.578 304.578 364.578 435.359 435.359 435.359 495.359> 338.844 60 636.422 20G
VStem: 304.578 60 435.359 60
LayerCount: 2
Fore
SplineSet
304.578 0 m 1xbc
 304.578 380.797 l 1
 262.625 338.844 l 1
 47 338.844 l 1
 364.578 656.422 l 1
 364.578 525.641 l 1
 495.359 656.422 l 1
 495.359 0 l 1
 435.359 0 l 1
 435.359 511.344 l 1
 364.578 440.797 l 1
 364.578 0 l 1
 304.578 0 l 1xbc
191.609 398.844 m 1
 237.547 398.844 l 1
 304.578 465.875 l 1
 304.578 511.344 l 1
 191.609 398.844 l 1
EndSplineSet
Validated: 1
EndChar

StartChar: two
Encoding: 50 50 5
Width: 530
GlyphClass: 2
Flags: MW
HStem: 0 60 118.125 60 431.938 60 539.188 60
VStem: 71 60 197.562 60
LayerCount: 2
Fore
SplineSet
232.625 599.188 m 0
 243.307 599.428 254.122 599.309 265.062 598.81 c 0
 308.831 596.823 354.528 588.521 392.188 563.372 c 0
 429.846 538.224 456.312 493.593 456.312 434.935 c 0
 456.312 376.275 431.639 347.234 396.688 312.559 c 0
 361.735 277.884 317.292 255.038 274.061 239.06 c 2
 257.561 233.248 l 1
 257.561 178.123 l 1
 468.498 178.123 l 1
 468.498 118.123 l 1
 257.561 118.123 l 1
 257.561 59.998 l 1
 468.499 59.998 l 1
 468.499 -0.00195312 l 1
 70.999 -0.00195312 l 1
 70.999 260.811 l 1
 99.3115 262.499 l 1
 99.3115 262.499 177.247 267.151 253.438 295.312 c 0
 291.534 309.393 328.268 329.473 354.312 355.312 c 0
 366.446 367.354 367.102 370.729 374.25 385.5 c 1
 361.881 407.988 352.496 412.215 327.5 421.062 c 0
 300.646 430.565 266.896 433.35 234.312 431.938 c 0
 169.146 429.112 110.188 410.562 110.188 410.562 c 1
 71 398.188 l 1
 71 573.875 l 1
 93.3125 580.062 l 1
 93.3125 580.062 157.859 597.5 232.625 599.188 c 0
241.061 539.186 m 0
 192.574 539.026 152.368 531.17 130.999 526.436 c 1
 130.999 477.873 l 1
 156.95 483.814 191.913 490.201 231.874 491.937 c 0
 269.327 493.56 309.688 491.021 347.374 477.687 c 0
 364.056 471.779 380.181 462.855 394.811 451.811 c 1
 391.296 482.689 378.645 500.25 358.811 513.498 c 0
 335.474 529.084 299.808 537.104 262.249 538.81 c 0
 255.013 539.139 247.986 539.209 241.061 539.186 c 0
197.562 216.561 m 1
 169.766 210.392 146.885 207.334 131 205.688 c 1
 131 59.999 l 1
 197.562 59.999 l 1
 197.562 216.561 l 1
EndSplineSet
Validated: 33
EndChar

StartChar: three
Encoding: 51 51 6
Width: 572
GlyphClass: 2
Flags: MW
HStem: -10 60 200.938 60 335.938 60 539.875 60
VStem: 83.375 60 302.562 60.188 446.188 60
LayerCount: 2
Fore
SplineSet
143.938 599.875 m 0
 168.875 599.875 192.816 595.612 215.188 587.872 c 0
 215.246 587.854 215.316 587.891 215.375 587.873 c 0
 237.957 595.707 262.239 599.873 287.375 599.873 c 0
 347.668 599.873 402.465 575.352 442.062 535.747 c 0
 481.672 496.149 506.188 447.983 506.188 387.686 c 0
 506.188 355.717 498.137 325.91 485.75 298.437 c 1
 498.178 270.927 506.188 241.038 506.188 208.999 c 0
 506.188 148.712 481.665 93.54 442.062 53.9365 c 0
 402.465 14.3389 347.668 -10.001 287.375 -10.001 c 0
 262.303 -10.001 238.098 -5.6123 215.562 2.18652 c 1
 193.073 -5.60059 169.026 -10.001 143.938 -10.001 c 0
 110.428 -10.001 78.4531 -2.33105 50 11.1865 c 1
 75.6875 65.1865 l 1
 96.3301 55.3779 119.457 49.999 143.938 49.999 c 0
 188.013 49.999 227.445 67.8818 256.25 96.6875 c 0
 283.303 123.739 300.541 160.114 302.562 200.938 c 1
 83.375 200.938 l 1
 83.375 395.938 l 1
 302.562 395.938 l 1
 300.501 436.719 283.257 466.188 256.251 493.188 c 0
 227.446 521.997 188.02 539.874 143.939 539.874 c 0
 119.458 539.874 96.3369 534.489 75.6885 524.688 c 1
 50.001 578.875 l 1
 78.4482 592.381 110.429 599.875 143.938 599.875 c 0
294.312 539.686 m 1
 295.73 538.344 297.25 537.122 298.627 535.745 c 0
 338.236 496.147 362.752 447.981 362.752 387.684 c 0
 362.752 355.715 354.889 325.908 342.502 298.435 c 1
 354.93 270.925 362.752 241.036 362.752 208.997 c 0
 362.752 148.71 338.23 93.5381 298.626 53.9346 c 0
 297.308 52.6162 295.849 51.4678 294.501 50.1846 c 1
 335.704 51.9893 372.249 69.4326 399.501 96.6855 c 0
 428.312 125.495 446.188 164.929 446.188 208.997 c 0
 446.188 236.325 439.31 261.778 427.251 284.186 c 2
 419.751 298.436 l 1
 427.251 312.498 l 2
 439.31 334.904 446.188 360.381 446.188 387.686 c 0
 446.188 431.771 428.312 464.381 399.501 493.186 c 0
 372.214 520.478 335.593 537.928 294.312 539.686 c 1
143.377 335.933 m 1
 143.377 260.934 l 1
 293.94 260.934 l 1
 291.14 268.973 287.8 276.771 283.814 284.184 c 2
 276.314 298.434 l 1
 283.814 312.495 l 2
 287.828 319.954 291.127 327.829 293.939 335.933 c 1
 143.377 335.933 l 1
EndSplineSet
Validated: 1
EndChar

StartChar: four
Encoding: 52 52 7
Width: 705
GlyphClass: 2
Flags: MW
HStem: 0 21G 0 21G 130.312 60 610.375 20G<536.375 536.375>
VStem: 476.375 60<0.000976562 130.312 0.000976562 130.312 190.312 306 306 306 391.875 483.188 483.188 483.188>
LayerCount: 2
Fore
SplineSet
536.375 630.375 m 1xb8
 536.375 190.312 l 1
 649.812 190.312 l 1
 649.812 130.312 l 1
 536.375 130.312 l 1
 536.375 0.000976562 l 1
 476.375 0.000976562 l 1
 476.375 130.312 l 1
 47 130.312 l 1
 536.375 630.375 l 1xb8
476.375 483.188 m 1
 189.5 190.312 l 1
 278.938 190.312 l 1
 476.375 391.875 l 1
 476.375 483.188 l 1
476.375 306 m 1
 474.688 304.312 l 1
 363.125 190.312 l 1
 476.375 190.312 l 1
 476.375 306 l 1
EndSplineSet
Validated: 1
EndChar

StartChar: five
Encoding: 53 53 8
Width: 516
GlyphClass: 2
Flags: MW
HStem: -9.875 60.9375 102.438 61.312 329.688 61.124 414.062 60 532.188 60
VStem: 72 60 198.562 60
LayerCount: 2
Fore
SplineSet
72 592.188 m 1
 422.627 592.188 l 1
 422.627 532.188 l 1
 258.564 532.188 l 1
 258.564 474.062 l 1
 422.627 474.062 l 1
 422.627 414.062 l 1
 258.563 414.062 l 1
 258.563 382.75 l 1
 262.618 382.006 266.579 381.367 270.751 380.5 c 0
 314.333 371.453 359.644 355.769 395.812 325.751 c 0
 431.982 295.728 457.312 249.597 457.312 190.938 c 0
 457.312 132.279 431.982 85.9551 395.812 55.9375 c 0
 359.644 25.9141 314.339 10.2285 270.751 1.1875 c 0
 227.169 -7.85938 184.312 -9.91016 152.251 -9.875 c 0
 120.189 -9.83984 99.001 -7.8125 99.001 -7.8125 c 1
 72.001 -5 l 1
 72.001 167.312 l 1
 105.376 163.75 l 1
 105.376 163.75 163.969 157.791 229.688 167.312 c 0
 292.712 176.446 356.087 199.932 383.438 248.312 c 1
 376.734 260.235 368.058 270.602 357.188 279.625 c 0
 332.361 300.227 296.303 313.979 258.562 321.812 c 0
 183.082 337.475 105.188 329.688 105.188 329.688 c 1
 72 326.5 l 1
 72 592.188 l 1
132.002 532.188 m 1
 132.002 390.812 l 1
 149.105 391.65 171.763 392.23 198.563 390.438 c 1
 198.563 532.188 l 1
 132.002 532.188 l 1
395.252 170.125 m 1
 350.75 132.414 291.012 115.3 238.501 107.688 c 0
 193.601 101.185 157.882 101.412 132.001 102.438 c 1
 132.001 51.0625 l 1
 140.251 50.6465 140.702 50.1074 153.563 50.125 c 0
 182.497 50.1602 220.823 52.041 258.563 59.875 c 0
 296.304 67.7031 332.362 81.4551 357.189 102.062 c 0
 377.557 118.967 390.928 139.885 395.252 170.125 c 1
EndSplineSet
Validated: 33
EndChar

StartChar: six
Encoding: 54 54 9
Width: 589
GlyphClass: 2
Flags: MW
HStem: -10 60 107.656 60 570.469 20G 586.172 20G
VStem: 63 60 172.688 60 354.562 60 468 60
LayerCount: 2
Fore
SplineSet
295.5 -10 m 0xef
 231.475 -10 173.246 15.9258 131.205 57.9668 c 0
 89.1523 100.002 63.002 158.467 63.002 222.498 c 0
 63.002 286.512 89.1582 344.748 131.205 386.795 c 2
 350.58 606.17 l 1xdf
 393.002 563.748 l 1
 173.627 344.373 l 2
 142.373 313.113 123.002 270.306 123.002 222.499 c 0
 123.002 174.675 142.373 131.626 173.627 100.39 c 0
 204.875 69.1357 247.69 49.999 295.502 49.999 c 0
 343.314 49.999 386.357 69.1357 417.611 100.39 c 0
 448.859 131.632 468.002 174.675 468.002 222.499 c 0
 468.002 259.981 455.844 294.131 435.658 322.344 c 1
 397.924 288.594 l 1
 408.178 270.787 414.563 250.455 414.563 228.594 c 0
 414.563 195.395 401.04 164.901 379.173 143.046 c 0
 357.329 121.202 326.843 107.655 293.626 107.655 c 0
 260.415 107.655 229.923 121.196 208.079 143.046 c 0
 186.212 164.901 172.688 195.395 172.688 228.594 c 0
 172.688 261.799 186.205 292.285 208.078 314.142 c 2
 484.406 590.47 l 1
 526.828 548.048 l 1
 250.5 271.72 l 2
 239.449 260.675 232.688 245.593 232.688 228.595 c 0
 232.688 211.603 239.438 196.525 250.5 185.47 c 0
 261.539 174.425 276.633 167.657 293.625 167.657 c 0
 310.629 167.657 325.699 174.413 336.75 185.47 c 0
 347.812 196.525 354.562 211.603 354.562 228.595 c 0
 354.562 245.593 347.801 260.675 336.75 271.72 c 2
 314.25 293.984 l 1
 439.875 406.953 l 1
 460.031 386.797 l 2
 502.066 344.75 528 286.52 528 222.5 c 0
 528 158.469 502.072 100.004 460.031 57.9688 c 0
 417.99 15.9277 359.525 -10 295.5 -10 c 0xef
EndSplineSet
Validated: 1
EndChar

StartChar: seven
Encoding: 55 55 10
Width: 597
GlyphClass: 2
Flags: MW
HStem: 0 21G<59.9375 130.438 59.9375 59.9375 195.312 266.375 195.312 195.312> 0 21G<59.9375 130.438 59.9375 59.9375 195.312 266.375 195.312 195.312> 429.875 60<116 305.938 414.125 444.875 116 376.438> 531.125 60<116 116 116 369.5>
VStem: 56 60<489.875 531.125 489.875 591.125>
LayerCount: 2
Fore
SplineSet
56 591.125 m 1xb8
 477.875 591.125 l 1
 414.125 489.875 l 1
 554.188 489.875 l 1
 266.375 0 l 1
 195.312 0 l 1
 444.875 429.875 l 1
 376.438 429.875 l 1
 130.438 0 l 1
 59.9375 0 l 1
 305.938 429.875 l 1
 56 429.875 l 1
 56 591.125 l 1xb8
116 531.125 m 1
 116 489.875 l 1
 343.438 489.875 l 1
 369.5 531.125 l 1
 116 531.125 l 1
EndSplineSet
Validated: 1
EndChar

StartChar: eight
Encoding: 56 56 11
Width: 586
GlyphClass: 2
Flags: MW
HStem: 52.6738 60.0002 370.955 60 539.781 60
VStem: 68 60 177.688 60 285.529 60 461.076 60
LayerCount: 2
Fore
SplineSet
337.297 -11 m 1
 252.452 2.59277 l 2
 147.852 19.1338 68 109.778 68 218.688 c 0
 68 247.397 74.5391 274.586 84.6406 299.781 c 1
 74.5391 324.982 68 352.164 68 380.875 c 0
 68 501.461 166.314 599.781 286.906 599.781 c 0
 350.674 599.781 408.383 572.219 448.391 528.53 c 2
 506.516 465.249 l 1
 421.672 478.843 l 2
 413.533 480.138 405.131 480.718 396.594 480.718 c 0
 308.428 480.718 237.688 409.966 237.688 321.811 c 0
 237.688 297.343 243.118 274.251 252.921 253.608 c 2
 259.015 240.719 l 1
 252.921 227.828 l 2
 243.112 207.18 237.688 184.094 237.688 159.625 c 0
 237.688 118.082 253.467 80.623 279.406 52.2812 c 2
 337.297 -11 l 1
188.702 93.999 m 1
 182.1 114.87 177.688 136.644 177.688 159.624 c 0
 177.688 188.335 184.227 215.521 194.327 240.718 c 1
 184.227 265.919 177.688 293.101 177.688 321.811 c 0
 177.688 421.367 245.094 504.688 336.358 531.107 c 1
 320.721 536.252 304.35 539.779 286.905 539.779 c 0
 198.739 539.779 127.999 469.027 127.999 380.873 c 0
 127.999 356.404 133.431 333.312 143.232 312.671 c 2
 149.326 299.78 l 1
 143.232 286.891 l 2
 133.425 266.241 127.999 243.155 127.999 218.688 c 0
 127.999 167.821 151.794 123.044 188.702 93.999 c 1
403.419 52.6719 m 0
 338.743 52.6719 285.527 105.655 285.527 170.325 c 0
 285.527 197.249 295.267 221.911 310.605 241.81 c 1
 295.267 261.709 285.527 286.377 285.527 313.295 c 0
 285.527 377.971 338.742 430.951 403.418 430.951 c 0
 468.094 430.951 521.074 377.972 521.074 313.296 c 0
 521.074 286.384 511.56 261.704 496.23 241.812 c 1
 511.56 221.92 521.074 197.24 521.074 170.328 c 0
 521.074 105.658 468.095 52.6719 403.419 52.6719 c 0
403.418 112.669 m 0
 435.668 112.669 461.073 138.087 461.073 170.325 c 0
 461.073 189.932 451.464 206.924 436.698 217.435 c 2
 403.417 241.106 l 1
 369.901 217.435 l 2
 355.137 206.924 345.526 189.937 345.526 170.325 c 0
 345.526 138.087 371.174 112.669 403.418 112.669 c 0
403.417 242.513 m 1
 436.699 266.184 l 2
 451.472 276.708 461.074 293.694 461.074 313.294 c 0
 461.074 345.538 435.668 370.95 403.418 370.95 c 0
 371.18 370.95 345.526 345.538 345.526 313.294 c 0
 345.526 293.688 355.124 276.708 369.901 266.184 c 2
 403.417 242.513 l 1
EndSplineSet
Validated: 1
EndChar

StartChar: nine
Encoding: 57 57 12
Width: 587
GlyphClass: 2
Flags: MW
HStem: -0.0625 21G -0.0625 21G 422.516 60 540.406 60
VStem: 60 60 173.438 60 355.312 60 465 60
LayerCount: 2
Fore
SplineSet
237.422 -16 m 1xbf
 194.997 26.4199 l 1
 414.372 245.795 l 2
 445.626 277.031 464.997 320.08 464.997 367.904 c 0
 464.997 415.711 445.626 458.519 414.372 489.778 c 0
 383.124 521.026 340.309 540.403 292.497 540.403 c 0
 244.686 540.403 201.643 521.026 170.389 489.778 c 0
 139.135 458.519 119.998 415.711 119.998 367.904 c 0
 119.998 330.357 132.115 296.045 152.342 267.826 c 1
 189.842 301.576 l 1
 179.582 319.377 173.437 339.943 173.437 361.811 c 0
 173.437 395.021 186.947 425.279 208.826 447.123 c 0
 230.67 468.99 261.162 482.515 294.373 482.515 c 0
 327.514 482.515 357.848 468.921 379.686 447.124 c 1
 379.686 446.89 l 1
 401.481 425.052 415.31 394.958 415.31 361.811 c 0
 415.31 328.671 401.477 298.337 379.686 276.499 c 2
 103.592 -0.0634766 l 1
 61.1699 42.3584 l 1
 337.264 318.687 l 1
 348.114 331.693 355.1 348.105 355.31 361.811 c 0
 355.31 378.82 348.549 393.662 337.498 404.701 c 1
 323.775 415.066 308.302 422.304 294.374 422.515 c 0
 277.364 422.515 262.3 415.759 251.249 404.702 c 0
 240.198 393.663 233.438 378.821 233.438 361.812 c 0
 233.438 344.809 240.188 329.731 251.249 318.688 c 2
 273.515 296.188 l 1
 148.124 183.219 l 1
 127.968 203.375 l 2
 85.9209 245.41 59.999 303.869 59.999 367.906 c 0
 59.999 431.926 85.9326 490.156 127.968 532.203 c 0
 170.009 574.244 228.474 600.406 292.499 600.406 c 0
 356.524 600.406 414.756 574.244 456.797 532.203 c 0
 498.844 490.15 525 431.92 525 367.906 c 0
 525 303.875 498.85 245.41 456.797 203.375 c 2
 237.422 -16 l 1xbf
EndSplineSet
Validated: 1
EndChar

StartChar: colon
Encoding: 58 58 13
Width: 340
GlyphClass: 2
Flags: MW
HStem: 0 60<132 207 132 267> 135 60<132 207 132 132> 219.375 60<132 207 132 267> 354.375 60<132 207 132 132>
VStem: 72 60<60 60 60 135 279.375 354.375> 207 60<60 135 135 135 279.375 354.375 354.375 354.375>
LayerCount: 2
Fore
SplineSet
72 0 m 1
 72 195 l 1
 267 195 l 1
 267 0 l 1
 72 0 l 1
132 60 m 1
 207 60 l 1
 207 135 l 1
 132 135 l 1
 132 60 l 1
72 219.375 m 1
 72 414.375 l 1
 267 414.375 l 1
 267 219.375 l 1
 72 219.375 l 1
132 279.375 m 1
 207 279.375 l 1
 207 354.375 l 1
 132 354.375 l 1
 132 279.375 l 1
EndSplineSet
Validated: 1
EndChar

StartChar: semicolon
Encoding: 59 59 14
Width: 339
GlyphClass: 2
Flags: MW
HStem: 0 60<183.469 206.203 158.392 266.203 183.469 183.469> 130.547 60 214.922 60 349.922 60
VStem: 71.2031 59.9999 206.203 60
LayerCount: 2
Fore
SplineSet
71.2031 214.922 m 1
 71.2031 409.922 l 1
 266.203 409.922 l 1
 266.203 214.922 l 1
 71.2031 214.922 l 1
131.203 274.922 m 1
 206.203 274.922 l 1
 206.203 349.922 l 1
 131.203 349.922 l 1
 131.203 274.922 l 1
105.656 -77.8125 m 1
 63.001 -35.3906 l 1
 158.392 60 l 1
 206.203 60 l 1
 206.203 130.547 l 1
 75.8906 130.547 l 1
 75.8906 190.547 l 1
 266.203 190.547 l 1
 266.203 0 l 1
 183.469 0 l 1
 105.656 -77.8125 l 1
EndSplineSet
Validated: 1
EndChar

StartChar: less
Encoding: 60 60 15
Width: 540
GlyphClass: 2
Flags: W
LayerCount: 2
Fore
SplineSet
468.062 600.875 m 1
 55 362.562 l 1
 209.875 273.125 l 1
 55 183.875 l 1
 467.875 -54.625 l 1
 467.875 193.438 l 1
 329.875 273.125 l 1
 468.062 352.812 l 1
 468.062 600.875 l 1
408.062 497 m 1
 408.062 387.5 l 1
 269.875 307.812 l 1
 175 362.562 l 1
 408.062 497 l 1
269.875 238.438 m 1
 407.875 158.75 l 1
 407.875 49.25 l 1
 175 183.875 l 1
 269.875 238.438 l 1
EndSplineSet
Validated: 9
EndChar

StartChar: greater
Encoding: 62 62 16
Width: 540
GlyphClass: 2
Flags: MW
HStem: 580.875 20G<73 73> 580.875 20G<73 73>
VStem: 73.1875 60.0005
LayerCount: 2
Fore
SplineSet
73 600.875 m 1xa0
 486.062 362.562 l 1
 331.188 273.125 l 1
 486.062 183.875 l 1
 73.1875 -54.625 l 1
 73.1875 193.438 l 1
 211.188 273.125 l 1
 73 352.812 l 1
 73 600.875 l 1xa0
133 497 m 1
 133 387.5 l 1
 271.188 307.812 l 1
 366.062 362.562 l 1
 133 497 l 1
271.188 238.438 m 1
 133.188 158.75 l 1
 133.188 49.25 l 1
 366.062 183.875 l 1
 271.188 238.438 l 1
EndSplineSet
Validated: 1
EndChar

StartChar: question
Encoding: 63 63 17
Width: 350
GlyphClass: 2
Flags: MW
HStem: 0 165 105 60 245.578 60 369.094 60 540.656 60
VStem: 62.0059 59.9941 77.709 60 186.453 60 212.709 60 238.016 60
LayerCount: 2
Fore
SplineSet
153.646 245.578 m 0x3d
 103.421 245.578 62.0068 286.991 62.0068 337.218 c 0
 62.0068 387.204 103.046 428.7 152.944 429.093 c 2
 180.126 429.093 l 2
 212.499 429.093 238.017 454.845 238.017 487.218 c 0
 238.017 519.591 214.396 540.655 180.125 540.655 c 0
 145.848 540.655 122 519.591 122 487.218 c 1
 62 487.218 l 1
 62 552.011 117.225 600.654 180.125 600.654 c 0
 243.025 600.654 298.017 552.011 298.017 487.218 c 0x3c40
 298.017 422.577 245.183 369.352 180.595 369.094 c 2
 153.642 369.094 l 2
 135.841 369.094 122.001 355.02 122.001 337.219 c 0
 122.001 319.418 135.841 305.578 153.642 305.578 c 0
 171.437 305.578 186.453 320.086 186.453 337.219 c 1
 246.453 337.219 l 1
 246.453 286.324 203.861 245.578 153.646 245.578 c 0x3d
77.71 -0.000976562 m 1xba80
 77.71 164.999 l 1
 272.71 164.999 l 1
 272.71 -0.000976562 l 1
 212.71 -0.000976562 l 1xba80
 212.71 104.999 l 1
 137.71 104.999 l 1x7a80
 137.71 -0.000976562 l 1
 77.71 -0.000976562 l 1xba80
EndSplineSet
Validated: 1
EndChar

StartChar: at
Encoding: 64 64 18
Width: 736
GlyphClass: 2
Flags: MW
HStem: 0 60<336.108 520.312 393.75 520.312> 118.562 60 422.312 60 540.438 60
VStem: 60 60 186.562 60 490.312 60 608.438 60
LayerCount: 2
Fore
SplineSet
393.75 0 m 2
 278.467 0 203.456 26.6719 149.063 81.0645 c 0
 94.0391 136.072 60.002 212.379 60.002 296.221 c 0
 60.002 380.039 94.0391 456.363 149.063 511.377 c 0
 204.083 566.396 280.39 600.439 364.22 600.439 c 0
 448.056 600.439 524.355 566.396 579.375 511.376 c 0
 634.4 456.362 668.438 380.038 668.438 296.22 c 2
 668.438 118.562 l 1
 368.438 118.562 l 2
 318.394 118.562 272.648 138.871 239.767 171.766 c 0
 206.896 204.637 186.562 250.387 186.562 300.438 c 0
 186.562 350.481 206.896 396.231 239.767 429.108 c 0
 272.644 461.975 318.388 482.312 368.438 482.312 c 0
 418.489 482.312 464.232 461.975 497.109 429.108 c 0
 529.98 396.231 550.312 350.481 550.312 300.438 c 2
 550.312 178.562 l 1
 608.438 178.562 l 1
 608.438 296.219 l 2
 608.438 363.824 581.181 424.738 536.954 468.953 c 0
 492.716 513.187 431.837 540.438 364.22 540.438 c 0
 296.607 540.438 235.724 513.187 191.484 468.953 c 0
 147.259 424.738 120.001 363.824 120.001 296.219 c 0
 120.001 228.59 147.259 167.699 191.484 123.484 c 0
 236.351 78.6191 289.658 60 393.75 60 c 2
 520.312 60 l 1
 520.312 0 l 1
 393.75 0 l 2
368.439 178.563 m 2
 490.313 178.563 l 1
 490.313 300.439 l 2
 490.313 334.271 476.538 364.6 454.454 386.689 c 0
 432.37 408.702 402.2 422.313 368.439 422.313 c 0
 334.612 422.313 304.284 408.778 282.189 386.689 c 0
 260.105 364.6 246.563 334.271 246.563 300.439 c 0
 246.563 266.606 260.105 236.272 282.189 214.189 c 0
 304.278 192.088 334.602 178.563 368.439 178.563 c 2
EndSplineSet
Validated: 1
EndChar

StartChar: A
Encoding: 65 65 19
Width: 812
GlyphClass: 2
Flags: MW
HStem: 0.25 60<554.562 655.812 554.562 762.5 518.562 655.812> 636 20G<393.688 393.688>
LayerCount: 2
Fore
SplineSet
393.688 656 m 1
 762.5 0.25 l 1
 518.562 0.25 l 1
 393.688 240.688 l 1
 287 0 l 1
 217.625 0 l 1
 393.688 360.688 l 1
 554.562 60.25 l 1
 655.812 60.25 l 1
 393.688 536 l 1
 116.375 0 l 1
 47 0 l 1
 393.688 656 l 1
EndSplineSet
Validated: 1
EndChar

StartChar: B
Encoding: 66 66 20
Width: 639
GlyphClass: 2
Flags: MW
HStem: 0 58.5 142.312 60 375.375 59.906 539.906 60.094
VStem: 73 60<58.4971 539.903 58.4971 600> 199.562 60 311.312 60 351.438 60 424.562 60 517.375 60
LayerCount: 2
Fore
SplineSet
73 600 m 1xfcc0
 312.062 599.999 l 2
 407.03 599.999 484.562 522.649 484.562 427.688 c 0
 484.562 417.731 483.571 407.94 481.938 398.438 c 1
 539.459 358.928 577.375 292.676 577.375 217.875 c 0
 577.375 106.535 496.797 12.2051 388.188 0 c 1
 73 0 l 1
 73 600 l 1xfcc0
312.062 539.905 m 2
 259.562 539.903 l 1
 259.562 435.278 l 1
 279.812 435.278 l 2
 330.021 435.278 371.312 394.094 371.312 343.873 c 0xfec0
 371.312 342.244 370.832 340.797 370.75 339.186 c 1
 395.383 318.666 411.438 288.209 411.438 253.873 c 0xfdc0
 411.438 191.365 358.34 142.311 297.062 142.311 c 2
 259.562 142.311 l 1
 259.562 58.499 l 1
 364.562 58.874 l 2
 452.733 58.874 517.374 128.524 517.374 217.874 c 0
 517.374 278.7 483.583 331.106 433.749 357.938 c 2
 411.624 369.75 l 1
 419.124 393.562 l 2
 422.563 404.354 424.562 415.739 424.562 427.688 c 0
 424.562 490.225 374.604 539.905 312.062 539.905 c 2
133 539.903 m 1
 133 58.4971 l 1
 199.562 58.4971 l 1
 199.562 539.903 l 1
 133 539.903 l 1
259.562 375.372 m 1
 259.562 202.311 l 1
 297.062 202.311 l 2
 325.92 202.311 351.438 226.259 351.438 253.874 c 0xfdc0
 351.438 273.726 340.526 290.535 324.438 299.248 c 2
 302.688 311.06 l 1
 310 334.686 l 2
 310.902 337.608 311.312 340.585 311.312 343.872 c 0
 311.312 361.661 297.603 375.372 279.812 375.372 c 2
 259.562 375.372 l 1
EndSplineSet
Validated: 1
EndChar

StartChar: C
Encoding: 67 67 21
Width: 639
GlyphClass: 2
Flags: MW
HStem: -12 60<328.972 385.731 328.972 393.364> 107.25 60<339.536 370.462 339.536 378.094> 420.562 60 540 60
VStem: 55 60 174.438 60
LayerCount: 2
Fore
SplineSet
355 600 m 0
 431.729 600 508.608 570.513 567.062 512.064 c 2
 588.438 490.877 l 1
 461.688 364.127 l 1
 440.312 385.313 l 2
 416.622 409.004 385.925 420.563 354.999 420.563 c 0
 324.073 420.563 293.376 409.004 269.687 385.313 c 0
 245.996 361.624 234.437 330.927 234.437 300.001 c 0
 234.437 269.075 245.996 226.378 269.687 202.688 c 0
 293.376 178.998 324.073 167.25 354.999 167.25 c 0
 385.925 167.25 416.622 178.998 440.312 202.688 c 1
 482.688 160.125 l 1
 447.53 124.969 401.188 107.25 354.999 107.25 c 0
 318.319 107.25 281.575 118.588 250.374 140.812 c 1
 207.999 98.4375 l 1
 251.212 64.7812 302.944 48 354.999 48 c 0
 416.464 48 477.694 71.3262 524.688 118.312 c 1
 567.062 75.75 l 1
 508.604 17.3027 431.729 -12 355 -12 c 0
 278.271 -12 201.396 17.3027 142.938 75.75 c 0
 84.4902 134.203 55 223.271 55 300 c 0
 55 376.729 84.4902 453.608 142.938 512.062 c 0
 201.392 570.51 278.271 600 355 600 c 0
355 540.003 m 0
 293.535 540.003 232.305 516.676 185.312 469.689 c 0
 138.325 422.696 114.999 361.466 114.999 300.001 c 0
 114.999 247.929 131.938 184.031 165.624 140.812 c 1
 207.999 183.188 l 1
 185.698 214.425 174.438 263.263 174.438 300.001 c 0
 174.438 346.19 192.156 392.532 227.312 427.689 c 0
 262.469 462.846 308.811 480.563 355 480.563 c 0
 391.686 480.563 428.225 468.852 459.438 446.627 c 1
 501.438 488.814 l 1
 458.26 522.378 406.979 540.003 355 540.003 c 0
EndSplineSet
Validated: 1
EndChar

StartChar: D
Encoding: 68 68 22
Width: 686
GlyphClass: 2
Flags: MW
HStem: -0.1875 60<336.812 336.812> 102.375 60 421.875 61.125 532.688 60
VStem: 74.5 60 199.749 59.532 461.125 60 562.375 60<258.008 359.139>
LayerCount: 2
Fore
SplineSet
73 592.688 m 1
 322.375 592.688 l 2
 487.709 592.688 622.375 458.016 622.375 292.688 c 0
 622.375 215.725 599.729 136.289 554.688 76.3125 c 1
 428.875 76.3125 l 1
 431.447 84.416 433.968 93.0762 436.562 102.375 c 1
 259.281 102.375 l 1
 259.281 59.8125 l 1
 371.875 59.8125 l 1
 336.812 -0.1875 l 1
 74.5 0 l 1
 73 592.688 l 1
133 532.688 m 1
 134.499 59.998 l 1
 199.748 59.998 l 1
 198.625 482.998 l 1
 237.998 482.998 l 2
 316.708 482.998 386.593 467.236 438.624 427.498 c 0
 490.655 387.76 521.124 323.594 521.124 242.06 c 0
 521.124 207.59 512.892 161.582 502.374 117.187 c 0
 501.337 112.798 500.241 109.282 499.188 104.999 c 1
 539.295 153.907 562.375 223.329 562.375 292.688 c 0
 562.375 425.59 455.283 532.688 322.375 532.688 c 2
 133 532.688 l 1
259.28 421.873 m 1
 259.281 162.374 l 1
 450.812 162.374 l 1
 457.035 193.962 461.125 224.138 461.125 242.061 c 0
 461.125 309.648 439.686 351.238 402.438 379.687 c 0
 369.057 405.181 319.772 419.107 259.28 421.873 c 1
EndSplineSet
Validated: 524289
EndChar

StartChar: E
Encoding: 69 69 23
Width: 636
GlyphClass: 2
Flags: MW
HStem: 0 60<133 199.562 259.562 567.062> 170.188 60 288.312 60 414.875 60<133 199.562 133 199.562 259.562 567.062> 533 60<133 133 133 199.562 259.562 567.062 259.562 259.562>
VStem: 73 60<60 170.188 230.188 288.312 348.312 414.875 474.875 533> 199.562 60 326.125 60<230.188 288.312 288.312 288.312>
LayerCount: 2
Fore
SplineSet
73 593 m 1
 567.062 593 l 1
 567.062 533 l 1
 259.562 533 l 1
 259.562 474.875 l 1
 567.062 474.875 l 1
 567.062 414.875 l 1
 259.562 414.875 l 1
 259.562 348.312 l 1
 386.125 348.312 l 1
 386.125 170.188 l 1
 259.562 170.188 l 1
 259.562 60 l 1
 567.062 60 l 1
 567.062 0 l 1
 73 0 l 1
 73 593 l 1
133 533 m 1
 133 474.875 l 1
 199.562 474.875 l 1
 199.562 533 l 1
 133 533 l 1
133 414.875 m 1
 133 348.312 l 1
 199.562 348.312 l 1
 199.562 414.875 l 1
 133 414.875 l 1
133 288.312 m 1
 133 230.188 l 1
 199.562 230.188 l 1
 199.562 288.312 l 1
 133 288.312 l 1
259.562 288.312 m 1
 259.562 230.188 l 1
 326.125 230.188 l 1
 326.125 288.312 l 1
 259.562 288.312 l 1
133 170.188 m 1
 133 60 l 1
 199.562 60 l 1
 199.562 170.188 l 1
 133 170.188 l 1
EndSplineSet
Validated: 1
EndChar

StartChar: F
Encoding: 70 70 24
Width: 690
GlyphClass: 2
Flags: MW
HStem: 0 60<133.812 191.938 133.812 251.938 73.8125 191.938> 243.125 60<133.812 133.812 133.812 189.125 73.8125 191.938> 383.75 65.625<136.625 189.125 136.625 189.125 254.75 332.562> 527.188 65.624
VStem: 73.8125 59.9995 189.125 65.625<305.938 383.75 305.938 383.75 305.938 383.75 449.375 527.188> 332.562 65.626
LayerCount: 2
Fore
SplineSet
71 592.812 m 1
 626.938 592.812 l 1
 626.938 527.188 l 1
 254.75 527.188 l 1
 254.75 449.375 l 1
 398.188 449.375 l 1
 398.188 240.312 l 1
 251.938 240.312 l 1
 251.938 0 l 1
 73.8125 0 l 1
 73.8125 303.125 l 1
 189.125 303.125 l 1
 189.125 383.75 l 1
 71 383.75 l 1
 71 592.812 l 1
136.625 527.188 m 1
 136.625 449.375 l 1
 189.125 449.375 l 1
 189.125 527.188 l 1
 136.625 527.188 l 1
254.75 383.75 m 1
 254.75 305.938 l 1
 332.562 305.938 l 1
 332.562 383.75 l 1
 254.75 383.75 l 1
133.812 243.125 m 1
 133.812 60 l 1
 191.938 60 l 1
 191.938 243.125 l 1
 133.812 243.125 l 1
EndSplineSet
Validated: 1
EndChar

StartChar: G
Encoding: 71 71 25
Width: 699
GlyphClass: 2
Flags: MW
HStem: 0 60 135 60 253.125 60<346.562 448.75 346.562 625 511.562 511.562 511.562 625> 396.562 60 405 60 540 60<288.546 391.398>
VStem: 55 60<233.548 366.45 233.548 382.664> 190 60 451.562 60
LayerCount: 2
Fore
SplineSet
355 600 m 0xef80
 469.615 600 569.705 535.441 620.125 440.625 c 2
 643.562 396.562 l 1
 396.25 396.562 l 1xf780
 383.014 401.654 370.674 404.238 355 405 c 0
 296.652 405 250 358.354 250 300 c 0
 250 241.658 296.658 195 355 195 c 0
 396.35 195 431.6 218.695 448.75 253.125 c 1
 346.562 253.125 l 1
 346.562 313.125 l 1
 625 313.125 l 1
 625 253.125 l 1
 511.562 253.125 l 1
 511.562 43.6875 l 1
 495.626 35.25 l 2
 453.685 12.9375 405.742 0 355 0 c 0
 189.666 0 55 134.672 55 300 c 0
 55 465.328 189.666 600 355 600 c 0xef80
355 540 m 0
 222.092 540 115 432.901 115 299.999 c 0
 115 167.097 222.092 59.999 355 59.999 c 0
 389.67 59.999 421.891 68.5713 451.562 81.749 c 1
 451.562 166.688 l 1
 424.386 146.911 391.063 134.999 354.999 134.999 c 0
 264.226 134.999 189.999 209.226 189.999 299.999 c 0
 189.999 390.778 264.231 464.999 354.999 464.999 c 0xef80
 372.741 464.999 389.604 461.688 405.438 456.562 c 1
 536.5 456.562 l 1
 492.555 507.516 427.797 540 355 540 c 0
EndSplineSet
Validated: 1
EndChar

StartChar: H
Encoding: 72 72 26
Width: 673
GlyphClass: 2
Flags: MW
HStem: 0 21G<73 132.062 73 73 191.123 250.188 191.123 191.123 418.938 478 418.938 418.938 537.062 596.125 537.062 537.062> 0 21G<73 132.062 73 73 191.123 250.188 191.123 191.123 418.938 478 418.938 418.938 537.062 596.125 537.062 537.062> 205.5 59.062 323.625 59.063 534.562 59.063
VStem: 73 59.062 191.124 59.064 418.938 59.062 537.062 59.063
LayerCount: 2
Fore
SplineSet
418.938 593.625 m 1xbf80
 596.125 593.625 l 1
 596.125 323.625 l 1
 250.188 323.625 l 1
 250.188 264.562 l 1
 596.125 264.562 l 1
 596.125 0 l 1
 537.062 0 l 1
 537.062 205.5 l 1
 478 205.5 l 1
 478 0 l 1
 418.938 0 l 1
 418.938 205.5 l 1
 250.188 205.5 l 1
 250.188 0 l 1
 191.123 0 l 1
 191.123 593 l 1
 250.188 593 l 1
 250.188 382.688 l 1
 418.938 382.688 l 1
 418.938 593.625 l 1xbf80
73 593 m 1
 132.062 593 l 1
 132.062 0 l 1
 73 0 l 1
 73 593 l 1
478 534.562 m 1
 478 382.688 l 1
 537.062 382.688 l 1
 537.062 534.562 l 1
 478 534.562 l 1
EndSplineSet
Validated: 1
EndChar

StartChar: I
Encoding: 73 73 27
Width: 327
GlyphClass: 2
Flags: MW
HStem: 0 21G<73 132.062 73 73 191.125 250.188 191.125 191.125> 0 21G<73 132.062 73 73 191.125 250.188 191.125 191.125> 532.562 59.0625
VStem: 73 59.0625 191.125 59.0625
LayerCount: 2
Fore
SplineSet
73 591.625 m 1xb8
 250.188 591.625 l 1
 250.188 0 l 1
 191.125 0 l 1
 191.125 532.562 l 1
 132.062 532.562 l 1
 132.062 0 l 1
 73 0 l 1
 73 591.625 l 1xb8
EndSplineSet
Validated: 1
EndChar

StartChar: J
Encoding: 74 74 28
Width: 577
GlyphClass: 2
Flags: MW
HStem: 166.531 60 539.719 53.062
VStem: 322.438 59.437 440.562 59.063
LayerCount: 2
Fore
SplineSet
322.438 592.781 m 1
 499.625 592.781 l 1
 499.625 -9.65625 l 1
 440.562 -9.65625 l 1
 440.562 539.719 l 1
 381.5 539.719 l 1
 381.875 -10 l 1
 343.438 -10 l 2
 214.262 -10 103.895 71.2402 61.8125 186.219 c 2
 47 226.531 l 1
 252.312 226.531 l 1
 261.312 218.095 l 2
 279.301 200.716 299.809 186.226 322.438 175.156 c 1
 322.438 592.781 l 1
137.938 166.531 m 1
 176.305 102.424 243.323 57.8643 321.874 50.8447 c 1
 321.874 110.47 l 1
 287.479 123.488 256.426 142.607 229.438 166.531 c 1
 137.938 166.531 l 1
EndSplineSet
Validated: 1
EndChar

StartChar: K
Encoding: 75 75 29
Width: 751
GlyphClass: 2
Flags: MW
HStem: 0 59.5312 573.152 20G 573.152 20G
VStem: 73 59.062 174.249 59.063
LayerCount: 2
Fore
SplineSet
233.312 387.28 m 0
 233.5 387.5 174.248 447 174.248 447 c 1
 174.248 593.152 l 1
 233.312 593.152 l 1
 233.312 394.781 l 1
 408.625 593.152 l 1
 492.062 593.152 l 1
 313 391.031 l 1
 354.625 349.219 l 1
 575.5 593.151 l 1
 654.812 593.151 l 1
 396.438 307.594 l 1
 704.875 0 l 1
 453.062 0 l 1
 233.312 220.219 l 1
 233.312 0.09375 l 1
 174.248 0.09375 l 1
 174.248 279.281 l 1
 132.062 321.469 l 1
 132.062 0.09375 l 1
 73 0.09375 l 1
 73 593.152 l 1
 132.062 593.151 l 1
 132.062 405.094 l 1
 174.248 362.906 l 1
 233.312 303.843 l 1
 477.438 59.5303 l 1
 561.438 59.1553 l 1
 233.312 387.28 l 1xb8
EndSplineSet
Validated: 524323
EndChar

StartChar: L
Encoding: 76 76 30
Width: 536
GlyphClass: 2
Flags: MW
HStem: 0 60<133 474.25 133 474.25> 126.562 60 533 60<133 208 133 133>
VStem: 73 60<60 533 60 593> 208 60<186.562 533 533 533>
LayerCount: 2
Fore
SplineSet
73 0 m 1
 73 593 l 1
 268 593 l 1
 268 186.562 l 1
 474.25 186.562 l 1
 474.25 126.562 l 1
 208 126.562 l 1
 208 533 l 1
 133 533 l 1
 133 60 l 1
 474.25 60 l 1
 474.25 0 l 1
 73 0 l 1
EndSplineSet
Validated: 1
EndChar

StartChar: M
Encoding: 77 77 31
Width: 901
GlyphClass: 2
Flags: MW
HStem: 0 53<681.5 764.938 681.5 824.938> 636 20G<73 73 682 682 825 825>
VStem: 73.0625 59.9995 216.5 60<0 208.062 0 311.75> 621.5 60<53 207.688 207.688 207.688 53 327.875 431.75 456.312 456.312 456.312> 764.938 60
LayerCount: 2
Fore
SplineSet
73.0625 593 m 1
 73 656 l 1
 377.562 152.938 l 1
 682 656 l 1
 681.5 593 l 1
 681.5 431.75 l 1
 825 656 l 1
 824.938 593 l 1
 824.938 0 l 1
 621.5 0 l 1
 621.5 207.688 l 1
 520.812 33.3125 l 1
 449.188 157.438 l 1
 377.375 33.3125 l 1
 276.5 208.062 l 1
 276.5 0 l 1
 216.5 0 l 1
 216.5 311.75 l 1
 133.062 456.5 l 1
 133.062 0 l 1
 73.0625 0 l 1
 73.0625 593 l 1
621.5 456.312 m 1
 483.688 217.438 l 1
 520.812 153.312 l 1
 621.5 327.688 l 1
 621.5 327.875 l 1
 621.5 456.312 l 1
764.938 456.125 m 1
 681.5 311.375 l 1
 681.5 53 l 1
 764.938 53 l 1
 764.938 456.125 l 1
EndSplineSet
Validated: 1
EndChar

StartChar: N
Encoding: 78 78 32
Width: 742
GlyphClass: 2
Flags: MW
HStem: 0 60<133 191.125 133 251.125> 0.0625 21G<664.562 664.562> 573.438 20G 573.438 20G
VStem: 73 60<60 481.5 60 658.5> 191.125 60<60 327.188 0 405.562> 486.438 60 604.562 60
LayerCount: 2
Fore
SplineSet
73 658.5 m 1x8f
 486.438 118.5 l 1
 486.438 593.438 l 1
 546.438 593.438 l 1
 546.438 211.312 l 1
 604.562 145.188 l 1
 604.562 593.438 l 1
 664.562 593.438 l 1
 664.562 0.0625 l 1x6f
 546.438 126.562 l 1
 546.438 -58.5 l 1
 251.125 327.188 l 1
 251.125 0 l 1
 73 0 l 1
 73 658.5 l 1x8f
133 481.5 m 1
 133 60 l 1
 191.125 60 l 1x8f
 191.125 405.562 l 1
 133 481.5 l 1
EndSplineSet
Validated: 1
EndChar

StartChar: O
Encoding: 79 79 33
Width: 718
GlyphClass: 2
Flags: MW
HStem: 0 60 413.438 60 540 60
VStem: 55 60 181.562 60 595 60
LayerCount: 2
Fore
SplineSet
355 600 m 0
 408.771 600 459.459 585.64 503.123 560.812 c 2
 537.437 541.312 l 1
 444.437 448.5 l 1
 464.177 436.611 481.257 420.873 494.874 402.375 c 1
 586.749 494.062 l 1
 606.999 462.751 l 2
 637.386 415.864 654.999 359.966 654.999 300.001 c 0
 654.999 134.667 520.333 0.000976562 354.999 0.000976562 c 0
 295.034 0.000976562 239.143 17.8076 192.25 48.1885 c 2
 160.938 68.4385 l 1
 252.812 160.312 l 1
 234.332 173.865 218.582 190.91 206.688 210.562 c 1
 113.688 117.751 l 1
 94.1875 152.062 l 2
 69.3613 195.738 55 246.234 55 300 c 0
 55 465.328 189.666 600 355 600 c 0
354.998 540.001 m 0
 222.09 540.001 114.998 432.904 114.998 300.002 c 0
 114.998 271.268 120.576 244.08 129.811 218.627 c 1
 183.811 272.814 l 1
 182.404 281.675 181.561 290.757 181.561 300.003 c 0
 181.561 395.429 259.561 473.44 354.998 473.44 c 0
 363.166 473.41 372.846 472.385 382.373 471.189 c 1
 436.373 525.376 l 1
 410.949 534.587 383.697 540.001 354.998 540.001 c 0
354.998 413.439 m 0
 291.986 413.439 241.56 363.002 241.56 300.002 c 0
 241.56 258.875 263.34 223.145 295.748 203.252 c 1
 451.748 359.063 l 1
 431.873 391.561 396.184 413.439 354.998 413.439 c 0
574.372 396.752 m 1
 258.247 80.8135 l 1
 287.89 67.6592 320.374 60.001 354.997 60.001 c 0
 487.911 60.001 594.997 167.093 594.997 300.001 c 0
 594.997 334.53 587.456 367.18 574.372 396.752 c 1
EndSplineSet
Validated: 1
EndChar

StartChar: P
Encoding: 80 80 34
Width: 592
GlyphClass: 2
Flags: MW
HStem: 0 21G<72 132 72 72 198.562 258.562 198.562 198.562> 0 21G<72 132 72 72 198.562 258.562 198.562 198.562> 540.25 60
VStem: 72 60<0 534.625 0 583.562 0 583.562> 198.562 60 350.438 60 468.562 60
LayerCount: 2
Fore
SplineSet
189.375 600.25 m 0xbe
 207.07 600.508 226.008 599.688 245.25 597.062 c 0
 250.617 596.329 255.943 595.479 261.375 594.438 c 1
 289.061 598.141 327.772 600.823 367.874 595.188 c 0
 405.421 589.907 445.288 577.188 476.812 548.125 c 0
 508.336 519.062 528.562 473.758 528.562 414.625 c 0
 528.562 298.756 462.633 235.867 400.125 210.625 c 0
 338.578 185.77 279.885 190.598 278.062 190.75 c 2
 276.938 190.75 l 1
 258.562 191.5 l 1
 258.562 0 l 1
 198.562 0 l 1
 198.562 540.25 l 1
 170.959 540.508 147.761 537.379 132 534.625 c 1
 132 0 l 1
 72 0 l 1
 72 583.562 l 1
 95.0625 589.188 l 1
 95.0625 589.188 136.295 599.482 189.375 600.25 c 0xbe
373.125 533.312 m 1
 396.246 504.72 410.437 465.355 410.437 416.5 c 0
 410.437 345.93 388.253 294.08 356.437 259.375 c 1
 363.449 261.326 370.517 263.629 377.624 266.5 c 0
 424.804 285.555 468.561 319.557 468.561 414.625 c 0
 468.561 460.961 455.226 486.455 436.124 504.062 c 0
 419.987 518.939 397.688 528.238 373.125 533.312 c 1
260.811 533.125 m 0
 260.138 533.008 259.22 532.867 258.562 532.75 c 2
 258.562 265.375 l 1
 273.435 270.9 287.953 278.601 300.75 289.188 c 0
 328.377 312.046 350.438 347.571 350.438 416.501 c 0
 350.438 462.638 336.702 487.839 316.874 505.562 c 0
 302.179 518.705 282.648 527.635 260.811 533.125 c 0
EndSplineSet
Validated: 33
EndChar

StartChar: Q
Encoding: 81 81 35
Width: 791
GlyphClass: 2
Flags: MW
HStem: -10 60 99.6885 60.1865 430.312 60 540 60
VStem: 55 60 164.688 60.186 485.312 60 595 60
LayerCount: 2
Fore
SplineSet
355 600 m 0
 520.334 600 655.002 455.328 655.002 290 c 0
 655.002 237.307 640.693 187.987 616.752 144.874 c 1
 743.127 19.999 l 1
 657.627 19.999 l 1
 540.439 135.688 l 1
 554.313 156.312 l 2
 580.014 194.538 595.002 240.354 595.002 289.999 c 0
 595.002 422.901 487.91 539.999 355.002 539.999 c 0
 222.094 539.999 115.002 422.901 115.002 289.999 c 0
 115.002 157.091 222.094 49.999 355.002 49.999 c 0
 386.01 49.999 415.26 56.2158 442.377 66.874 c 1
 403.19 106.061 l 1
 387.757 101.978 371.655 99.6875 355.003 99.6875 c 0
 250.249 99.6875 164.691 185.245 164.691 289.999 c 0
 164.691 394.747 250.243 490.312 355.003 490.312 c 0
 459.757 490.312 545.314 394.747 545.314 289.999 c 0
 545.314 250.864 533.427 214.35 513.064 184.062 c 1
 463.19 217.438 l 1
 477.147 238.196 485.314 262.981 485.314 289.999 c 0
 485.314 362.327 427.33 430.312 355.002 430.312 c 0
 305.268 430.312 262.235 402.879 240.252 362.25 c 1
 241.188 363.188 l 1
 541.938 52.25 l 1
 508.938 32.5625 l 2
 463.949 5.62695 411.156 -10 355 -10 c 0
 189.666 -10 55 124.666 55 290 c 0
 55 455.328 189.666 600 355 600 c 0
224.876 284.562 m 1
 227.619 216.582 281.584 162.623 349.564 159.875 c 1
 224.876 284.562 l 1
EndSplineSet
Validated: 1
EndChar

StartChar: R
Encoding: 82 82 36
Width: 757
GlyphClass: 2
Flags: MW
HStem: -1 59.0625 542.312 55.876
VStem: 73 59.062 190.938 59.25 402.062 58.876 528.438 59.25
LayerCount: 2
Fore
SplineSet
296.875 602.5 m 0
 324.93 602.975 360.297 601.328 398.688 594.438 c 0
 442.948 586.492 489.12 571.48 525.812 540.438 c 0
 562.504 509.395 587.688 461.103 587.688 398.876 c 0
 587.688 312.503 559.305 257.39 528.812 225.626 c 0
 521.229 217.733 513.59 211.061 506.125 205.752 c 1
 713.688 -0.998047 l 1
 478.374 -0.998047 l 1
 250.188 226.19 l 1
 250.188 0.626953 l 1
 190.938 0.626953 l 1
 190.938 542.313 l 1
 165.883 543.129 146.399 542.08 132.062 540.627 c 1
 132.062 0.626953 l 1
 73 0.626953 l 1
 73 592.939 l 1
 97.9375 596.876 l 1
 97.9375 596.876 163.68 606.005 238.938 598.188 c 1
 248.172 599.431 268.82 602.025 296.875 602.5 c 0
250.188 537.812 m 1
 250.188 232.562 l 1
 299.124 242.312 l 1
 299.124 242.312 323.2 247.094 349.188 268.75 c 0
 375.174 290.406 402.062 326.494 402.062 398.875 c 0
 402.062 446.336 386.008 473.897 361 495.062 c 0
 335.992 516.227 299.816 529.491 261.812 536.312 c 0
 257.894 537.016 254.032 537.455 250.188 537.812 c 1
408.25 530.688 m 1
 439.598 499.654 460.938 455.446 460.938 398.874 c 0
 460.938 310.942 424.546 254.266 387.251 223.188 c 0
 376.962 214.614 366.767 208.305 357.062 202.938 c 1
 502.75 58.0615 l 1
 571.188 58.0615 l 1
 398.875 229.374 l 1
 449.5 241.938 l 1
 449.5 241.938 465.93 245.336 486.062 266.312 c 0
 506.194 287.282 528.438 324.936 528.438 398.875 c 0
 528.438 446.336 512.569 473.897 487.562 495.062 c 0
 467.137 512.348 438.502 523.157 408.25 530.688 c 1
EndSplineSet
Validated: 33
EndChar

StartChar: S
Encoding: 83 83 37
Width: 564
GlyphClass: 2
Flags: MW
HStem: -9 60<274.944 312.062 312.062 312.25> 142.875 60<49 49.375> 178.406 60 305.062 60 427.125 60<405.438 488.688 405.438 488.688 348.812 488.688> 540 60<240.862 286.896>
VStem: 102.812 60 121.188 60 443.125 60
LayerCount: 2
Fore
SplineSet
263.875 600 m 0xdd80
 332.195 600 391.293 551.818 405.438 487.125 c 1
 488.688 487.125 l 1
 488.688 427.125 l 1
 348.812 427.125 l 1
 348.812 457.125 l 2
 348.812 502.482 309.918 540 263.875 540 c 0
 217.85 540 181.188 503.156 181.188 457.125 c 0xdd80
 181.188 411.076 217.85 365.062 263.875 365.062 c 2
 312.812 365.062 l 2
 417.625 364.677 503.125 278.345 503.125 173.438 c 0
 503.125 68.3086 415.486 -9 312.25 -9 c 2
 312.062 -9 l 2
 219.098 -9 139.469 54 124.374 143.25 c 1
 49.375 142.875 l 1
 49 202.875 l 1
 165.812 203.625 l 1
 127.948 229.371 102.812 272.613 102.812 321.562 c 0xde80
 102.812 351.75 112.356 380.139 128.5 403.312 c 1
 123.782 417.422 121.188 441.475 121.188 457.125 c 0
 121.188 535.582 185.418 600 263.875 600 c 0xdd80
166.188 344.812 m 1
 164.261 338.039 163.188 329.736 162.812 321.562 c 0
 162.812 275.515 199.47 238.406 245.502 238.406 c 2
 294.626 238.406 l 2xbe80
 354.485 238.185 408.005 209.843 442.938 166.312 c 1
 443.056 168.662 443.126 171.035 443.126 173.438 c 0
 443.126 246.158 384.96 305.062 312.251 305.062 c 2
 263.126 305.062 l 2
 225.661 305.251 191.63 320.843 166.188 344.812 c 1
181.188 194.438 m 1xbd80
 181.188 173.438 l 2
 181.188 100.74 237.638 51 312.251 51 c 0
 355.247 51 392.155 67.4766 415.751 95.4385 c 1
 396.544 143.748 349.399 178.406 293.876 178.406 c 2
 245.502 178.406 l 2
 222.386 178.406 200.56 184.564 181.188 194.438 c 1xbd80
EndSplineSet
Validated: 1
EndChar

StartChar: T
Encoding: 84 84 38
Width: 692
GlyphClass: 2
Flags: MW
HStem: 0 21G<239.938 299.938 239.938 239.938 383.375 443.375 383.375 383.375> 0 21G<239.938 299.938 239.938 239.938 383.375 443.375 383.375 383.375> 413.875 60.563 532 60<59 239.938 59 629 299.938 383.375 299.938 299.938 443.375 569 443.375 443.375>
VStem: 239.938 60 383.375 60<0 412.938 0 413.875 0 413.875 474.438 532> 569 60<472.938 532 532 532>
LayerCount: 2
Fore
SplineSet
59 592 m 1xbe
 629 592 l 1
 629 412.938 l 1
 443.375 412.938 l 1
 443.375 0 l 1
 383.375 0 l 1
 383.375 412.938 l 1
 383.375 413.875 l 1
 299.938 413.875 l 1
 299.938 0 l 1
 239.938 0 l 1
 239.938 413.875 l 1
 59 413.875 l 1
 59 473.875 l 1
 239.938 474.438 l 1
 239.938 532 l 1
 59 532 l 1
 59 592 l 1xbe
299.938 532 m 1
 299.938 474.438 l 1
 383.375 474.438 l 1
 383.375 532 l 1
 299.938 532 l 1
443.375 532 m 1
 443.375 472.938 l 1
 569 472.938 l 1
 569 532 l 1
 443.375 532 l 1
EndSplineSet
Validated: 1
EndChar

StartChar: U
Encoding: 85 85 39
Width: 738
GlyphClass: 2
Flags: MW
HStem: -10 60<331.425 381.379 331.425 411.05> 533 60<125.998 125.998 125.998 175.687>
VStem: 66 60 175.688 60 479.438 60 606 60<290 591>
LayerCount: 2
Fore
SplineSet
66 593 m 1
 235.687 593 l 1
 235.687 375.938 l 2
 235.687 286.153 284.882 198.26 357.561 157.062 c 1
 430.24 198.26 479.437 286.137 479.437 375.938 c 2
 479.437 591 l 1
 539.437 591 l 1
 539.437 375.938 l 2
 539.437 280.997 495.093 186.188 425.999 131.188 c 1
 442.03 127.807 458.602 125.938 475.688 125.938 c 0
 502.354 125.938 527.918 130.313 551.812 138.312 c 1
 585.68 179.686 606 232.25 606 290 c 2
 606 591 l 1
 666 591 l 1
 666 290 l 2
 666 214.742 638.027 145.783 592.125 93.125 c 0
 537.17 30.0723 456.1 -10 366 -10 c 0
 279.955 -10 202.049 26.4805 147.375 84.6875 c 0
 96.9844 138.312 66 210.711 66 290 c 2
 66 593 l 1
125.998 533 m 1
 125.998 290 l 2
 125.998 226.291 150.672 168.916 191.06 125.938 c 0
 234.877 79.291 296.852 50 365.998 50 c 0
 396.76 50 425.494 56.7559 452.437 67.25 c 1
 414.033 70.2207 377.465 80.0117 344.436 96.125 c 0
 244.498 144.828 175.687 257.59 175.687 375.938 c 2
 175.687 533 l 1
 125.998 533 l 1
EndSplineSet
Validated: 1
EndChar

StartChar: V
Encoding: 86 86 40
Width: 791
GlyphClass: 2
Flags: MW
HStem: 524.688 67.5
LayerCount: 2
Fore
SplineSet
49 592.188 m 1
 275.688 592.188 l 1
 393.625 379.812 l 1
 511.75 592.188 l 1
 580.938 592.188 l 1
 393.625 259.812 l 1
 245.5 524.688 l 1
 157.188 524.688 l 1
 393.625 107 l 1
 669.25 592.188 l 1
 738.438 592.188 l 1
 393.625 -13 l 1
 49 592.188 l 1
EndSplineSet
Validated: 1
EndChar

StartChar: W
Encoding: 87 87 41
Width: 1104
GlyphClass: 2
Flags: MW
HStem: 524.688 67.5
LayerCount: 2
Fore
SplineSet
49 592.188 m 1
 275.688 592.188 l 1
 434.688 316.188 l 1
 393.812 261.812 l 1
 245.502 524.688 l 1
 157.188 524.688 l 1
 393.812 109 l 1
 669.25 592.188 l 1
 738.438 592.188 l 1
 393.812 -11 l 1
 49 592.188 l 1
823.938 592.188 m 1
 893.125 592.188 l 1
 706 261.812 l 1
 652.562 354.25 l 1
 692.125 405.812 l 1
 706 381.812 l 1
 823.938 592.188 l 1
981.438 592.188 m 1
 1050.62 592.188 l 1
 706 -11 l 1
 586.562 198.062 l 1
 620.312 257.125 l 1
 706 109 l 1
 981.438 592.188 l 1
EndSplineSet
Validated: 1
EndChar

StartChar: X
Encoding: 88 88 42
Width: 765
GlyphClass: 2
Flags: MW
HStem: 0 60<499.689 599.252 499.689 703.127 465.002 599.252> 532.062 60
LayerCount: 2
Fore
SplineSet
57.5625 592.062 m 1
 295.688 592.062 l 1
 380.438 449.25 l 1
 474.875 591.25 l 1
 544.25 591.25 l 1
 295.875 183.188 l 1
 264.75 237.375 l 1
 117.625 0.25 l 1
 49 0.25 l 1
 229.875 297.75 l 1
 57.5625 592.062 l 1
640.625 591.25 m 1
 709.627 591.25 l 1
 531.002 298.125 l 1
 703.127 0 l 1
 465.002 0 l 1
 380.439 146.812 l 1
 282.251 0.25 l 1
 213.062 0.25 l 1
 464.812 412.875 l 1
 496.125 358.5 l 1
 640.625 591.25 l 1
161.627 532.062 m 1
 296.064 303.188 l 1
 345.752 389.25 l 1
 261.002 532.062 l 1
 161.627 532.062 l 1
464.814 292.875 m 1
 414.939 206.812 l 1
 499.689 60 l 1
 599.252 60 l 1
 496.69 237.75 l 1
 464.814 292.875 l 1
EndSplineSet
Validated: 1
EndChar

StartChar: Y
Encoding: 89 89 43
Width: 801
GlyphClass: 2
Flags: MW
HStem: 0 21G<314.5 376.562 314.5 314.5 424.188 484.188 424.188 424.188> 0 21G<314.5 376.562 314.5 314.5 424.188 484.188 424.188 424.188> 571 20G<49 133.938 133.938 133.938 197.688 282.625 282.625 282.625 518.125 603.062 603.062 603.062 664.75 749.688 749.688 749.688> 571 20G<49 133.938 133.938 133.938 197.688 282.625 282.625 282.625 518.125 603.062 603.062 603.062 664.75 749.688 749.688 749.688>
VStem: 314.5 62.062 424.188 60
LayerCount: 2
Fore
SplineSet
49 591 m 1xac
 133.938 591 l 1
 374.5 350.25 l 1
 374.5 300.75 l 1
 664.75 591 l 1
 749.688 591 l 1
 484.188 325.688 l 1
 484.188 0 l 1
 424.188 0 l 1
 424.188 265.688 l 1
 376.562 218.062 l 1
 376.562 0 l 1
 314.5 0 l 1
 314.5 325.688 l 1
 49 591 l 1xac
197.688 591 m 1
 282.625 591 l 1
 400.375 473.25 l 1
 518.125 591 l 1
 603.062 591 l 1
 400.375 388.125 l 1
 197.688 591 l 1
EndSplineSet
Validated: 1
EndChar

StartChar: Z
Encoding: 90 90 44
Width: 693
GlyphClass: 2
Flags: MW
HStem: 0 60.75<318.031 625.219 318.031 625.219> 112.688 60 428.312 60 529.75 61.781
LayerCount: 2
Fore
SplineSet
564.219 591.531 m 1
 633.406 591.531 l 1
 383.656 172.688 l 1
 625.219 172.688 l 1
 625.219 112.688 l 1
 348.594 112.688 l 1
 318.031 60.75 l 1
 625.219 60.75 l 1
 625.219 0 l 1
 213.219 0 l 1
 564.219 591.531 l 1
59 591.531 m 1
 478.344 591.531 l 1
 130.344 0 l 1
 66.5938 0 l 1
 314.656 428.312 l 1
 59 428.312 l 1
 59 488.312 l 1
 349.719 488.312 l 1
 373.906 529.75 l 1
 59 529.75 l 1
 59 591.531 l 1
EndSplineSet
Validated: 1
EndChar

StartChar: backslash
Encoding: 92 92 45
Width: 788
GlyphClass: 2
Flags: MW
HStem: 0 21G<308.312 370.375 308.312 308.312 418 478 418 418> 0 21G<308.312 370.375 308.312 308.312 418 478 418 418> 248.812 60 358.5 60<152.688 215.5 152.688 275.5 152.688 215.5 571.188 650.5> 571 20G<43 127.75 127.75 127.75 191.5 276.438 276.438 276.438 511.938 596.875 596.875 596.875 658.75 743.5 743.5 743.5> 571 20G<43 127.75 127.75 127.75 191.5 276.438 276.438 276.438 511.938 596.875 596.875 596.875 658.75 743.5 743.5 743.5>
VStem: 308.312 62.063 418 60<0 248.812 0 265.5 0 265.5>
LayerCount: 2
Fore
SplineSet
43 591 m 1xbb
 127.75 591 l 1
 368.312 350.25 l 1
 368.312 300.562 l 1
 658.75 591 l 1
 743.5 591 l 1
 571.188 418.5 l 1
 650.5 418.5 l 1
 650.5 358.5 l 1
 511.188 358.5 l 1
 478 325.312 l 1
 478 308.812 l 1
 650.5 308.812 l 1
 650.5 248.812 l 1
 478 248.812 l 1
 478 0 l 1
 418 0 l 1
 418 265.5 l 1
 370.375 217.875 l 1
 370.375 0 l 1
 308.312 0 l 1
 308.312 248.812 l 1
 152.688 248.812 l 1
 152.688 308.812 l 1
 308.312 308.812 l 1
 308.312 325.688 l 1
 275.5 358.5 l 1
 152.688 358.5 l 1
 152.688 418.5 l 1
 215.5 418.5 l 1
 43 591 l 1xbb
191.5 591 m 1
 276.438 591 l 1
 394.188 473.25 l 1
 511.938 591 l 1
 596.875 591 l 1
 394.188 388.125 l 1
 191.5 591 l 1
EndSplineSet
Validated: 1
EndChar

StartChar: a
Encoding: 97 97 46
Width: 812
GlyphClass: 2
Flags: MW
HStem: 0.25 60<554.562 655.812 554.562 762.5 518.562 655.812> 636 20G<393.688 393.688>
LayerCount: 2
Fore
SplineSet
393.688 656 m 1
 762.5 0.25 l 1
 518.562 0.25 l 1
 393.688 240.688 l 1
 287 0 l 1
 217.625 0 l 1
 393.688 360.688 l 1
 554.562 60.25 l 1
 655.812 60.25 l 1
 393.688 536 l 1
 116.375 0 l 1
 47 0 l 1
 393.688 656 l 1
EndSplineSet
Validated: 1
EndChar

StartChar: b
Encoding: 98 98 47
Width: 639
GlyphClass: 2
Flags: MW
HStem: 0 58.5 142.312 60 375.375 59.906 539.906 60.094
VStem: 73 60<58.4971 539.903 58.4971 600> 199.562 60 311.312 60 351.438 60 424.562 60 517.375 60
LayerCount: 2
Fore
SplineSet
73 600 m 1xfcc0
 312.062 599.999 l 2
 407.03 599.999 484.562 522.649 484.562 427.688 c 0
 484.562 417.731 483.571 407.94 481.938 398.438 c 1
 539.459 358.928 577.375 292.676 577.375 217.875 c 0
 577.375 106.535 496.797 12.2051 388.188 0 c 1
 73 0 l 1
 73 600 l 1xfcc0
312.062 539.905 m 2
 259.562 539.903 l 1
 259.562 435.278 l 1
 279.812 435.278 l 2
 330.021 435.278 371.312 394.094 371.312 343.873 c 0xfec0
 371.312 342.244 370.832 340.797 370.75 339.186 c 1
 395.383 318.666 411.438 288.209 411.438 253.873 c 0xfdc0
 411.438 191.365 358.34 142.311 297.062 142.311 c 2
 259.562 142.311 l 1
 259.562 58.499 l 1
 364.562 58.874 l 2
 452.733 58.874 517.374 128.524 517.374 217.874 c 0
 517.374 278.7 483.583 331.106 433.749 357.938 c 2
 411.624 369.75 l 1
 419.124 393.562 l 2
 422.563 404.354 424.562 415.739 424.562 427.688 c 0
 424.562 490.225 374.604 539.905 312.062 539.905 c 2
133 539.903 m 1
 133 58.4971 l 1
 199.562 58.4971 l 1
 199.562 539.903 l 1
 133 539.903 l 1
259.562 375.372 m 1
 259.562 202.311 l 1
 297.062 202.311 l 2
 325.92 202.311 351.438 226.259 351.438 253.874 c 0xfdc0
 351.438 273.726 340.526 290.535 324.438 299.248 c 2
 302.688 311.06 l 1
 310 334.686 l 2
 310.902 337.608 311.312 340.585 311.312 343.872 c 0
 311.312 361.661 297.603 375.372 279.812 375.372 c 2
 259.562 375.372 l 1
EndSplineSet
Validated: 1
EndChar

StartChar: c
Encoding: 99 99 48
Width: 639
GlyphClass: 2
Flags: MW
HStem: -12 60<328.972 385.731 328.972 393.364> 107.25 60<339.536 370.462 339.536 378.094> 420.562 60 540 60
VStem: 55 60 174.438 60
LayerCount: 2
Fore
SplineSet
355 600 m 0
 431.729 600 508.608 570.513 567.062 512.064 c 2
 588.438 490.877 l 1
 461.688 364.127 l 1
 440.312 385.313 l 2
 416.622 409.004 385.925 420.563 354.999 420.563 c 0
 324.073 420.563 293.376 409.004 269.687 385.313 c 0
 245.996 361.624 234.437 330.927 234.437 300.001 c 0
 234.437 269.075 245.996 226.378 269.687 202.688 c 0
 293.376 178.998 324.073 167.25 354.999 167.25 c 0
 385.925 167.25 416.622 178.998 440.312 202.688 c 1
 482.688 160.125 l 1
 447.53 124.969 401.188 107.25 354.999 107.25 c 0
 318.319 107.25 281.575 118.588 250.374 140.812 c 1
 207.999 98.4375 l 1
 251.212 64.7812 302.944 48 354.999 48 c 0
 416.464 48 477.694 71.3262 524.688 118.312 c 1
 567.062 75.75 l 1
 508.604 17.3027 431.729 -12 355 -12 c 0
 278.271 -12 201.396 17.3027 142.938 75.75 c 0
 84.4902 134.203 55 223.271 55 300 c 0
 55 376.729 84.4902 453.608 142.938 512.062 c 0
 201.392 570.51 278.271 600 355 600 c 0
355 540.003 m 0
 293.535 540.003 232.305 516.676 185.312 469.689 c 0
 138.325 422.696 114.999 361.466 114.999 300.001 c 0
 114.999 247.929 131.938 184.031 165.624 140.812 c 1
 207.999 183.188 l 1
 185.698 214.425 174.438 263.263 174.438 300.001 c 0
 174.438 346.19 192.156 392.532 227.312 427.689 c 0
 262.469 462.846 308.811 480.563 355 480.563 c 0
 391.686 480.563 428.225 468.852 459.438 446.627 c 1
 501.438 488.814 l 1
 458.26 522.378 406.979 540.003 355 540.003 c 0
EndSplineSet
Validated: 1
EndChar

StartChar: d
Encoding: 100 100 49
Width: 686
GlyphClass: 2
Flags: MW
HStem: -0.1875 60<336.812 336.812> 102.375 60 421.875 61.125 532.688 60
VStem: 74.5 60 199.749 59.532 461.125 60 562.375 60<258.008 359.139>
LayerCount: 2
Fore
SplineSet
73 592.688 m 1
 322.375 592.688 l 2
 487.709 592.688 622.375 458.016 622.375 292.688 c 0
 622.375 215.725 599.729 136.289 554.688 76.3125 c 1
 428.875 76.3125 l 1
 431.447 84.416 433.968 93.0762 436.562 102.375 c 1
 259.281 102.375 l 1
 259.281 59.8125 l 1
 371.875 59.8125 l 1
 336.812 -0.1875 l 1
 74.5 0 l 1
 73 592.688 l 1
133 532.688 m 1
 134.499 59.998 l 1
 199.748 59.998 l 1
 198.625 482.998 l 1
 237.998 482.998 l 2
 316.708 482.998 386.593 467.236 438.624 427.498 c 0
 490.655 387.76 521.124 323.594 521.124 242.06 c 0
 521.124 207.59 512.892 161.582 502.374 117.187 c 0
 501.337 112.798 500.241 109.282 499.188 104.999 c 1
 539.295 153.907 562.375 223.329 562.375 292.688 c 0
 562.375 425.59 455.283 532.688 322.375 532.688 c 2
 133 532.688 l 1
259.28 421.873 m 1
 259.281 162.374 l 1
 450.812 162.374 l 1
 457.035 193.962 461.125 224.138 461.125 242.061 c 0
 461.125 309.648 439.686 351.238 402.438 379.687 c 0
 369.057 405.181 319.772 419.107 259.28 421.873 c 1
EndSplineSet
Validated: 1
EndChar

StartChar: e
Encoding: 101 101 50
Width: 531
GlyphClass: 2
Flags: MW
HStem: 583.516 20G
VStem: 401.969 60
LayerCount: 2
Fore
SplineSet
416.969 -11 m 1
 49 201.345 l 1
 203.923 301.642 l 1
 49 391.173 l 1
 94 417.188 l 1
 416.969 603.517 l 1
 446.969 551.484 l 1
 169 391.172 l 1
 263.923 336.328 l 1
 461.969 450.703 l 1
 461.969 141.812 l 1
 263.923 255.953 l 1
 169 201.344 l 1
 446.969 40.7969 l 1
 416.969 -11 l 1
401.969 245.642 m 1
 401.969 346.642 l 1
 323.923 301.642 l 1
 401.969 245.642 l 1
EndSplineSet
Validated: 1
EndChar

StartChar: f
Encoding: 102 102 51
Width: 690
GlyphClass: 2
Flags: MW
HStem: 0 60<133.812 191.938 133.812 251.938 73.8125 191.938> 243.125 60<133.812 133.812 133.812 189.125 73.8125 191.938> 383.75 65.625<136.625 189.125 136.625 189.125 254.75 332.562> 527.188 65.624
VStem: 73.8125 59.9995 189.125 65.625<305.938 383.75 305.938 383.75 305.938 383.75 449.375 527.188> 332.562 65.626
LayerCount: 2
Fore
SplineSet
71 592.812 m 1
 626.938 592.812 l 1
 626.938 527.188 l 1
 254.75 527.188 l 1
 254.75 449.375 l 1
 398.188 449.375 l 1
 398.188 240.312 l 1
 251.938 240.312 l 1
 251.938 0 l 1
 73.8125 0 l 1
 73.8125 303.125 l 1
 189.125 303.125 l 1
 189.125 383.75 l 1
 71 383.75 l 1
 71 592.812 l 1
136.625 527.188 m 1
 136.625 449.375 l 1
 189.125 449.375 l 1
 189.125 527.188 l 1
 136.625 527.188 l 1
254.75 383.75 m 1
 254.75 305.938 l 1
 332.562 305.938 l 1
 332.562 383.75 l 1
 254.75 383.75 l 1
133.812 243.125 m 1
 133.812 60 l 1
 191.938 60 l 1
 191.938 243.125 l 1
 133.812 243.125 l 1
EndSplineSet
Validated: 1
EndChar

StartChar: g
Encoding: 103 103 52
Width: 699
GlyphClass: 2
Flags: MW
HStem: 0 60 135 60 253.125 60<346.562 448.75 346.562 625 511.562 511.562 511.562 625> 396.562 60 405 60 540 60<288.546 391.398>
VStem: 55 60<233.548 366.45 233.548 382.664> 190 60 451.562 60
LayerCount: 2
Fore
SplineSet
355 600 m 0xef80
 469.615 600 569.705 535.441 620.125 440.625 c 2
 643.562 396.562 l 1
 396.25 396.562 l 1xf780
 383.014 401.654 370.674 404.238 355 405 c 0
 296.652 405 250 358.354 250 300 c 0
 250 241.658 296.658 195 355 195 c 0
 396.35 195 431.6 218.695 448.75 253.125 c 1
 346.562 253.125 l 1
 346.562 313.125 l 1
 625 313.125 l 1
 625 253.125 l 1
 511.562 253.125 l 1
 511.562 43.6875 l 1
 495.626 35.25 l 2
 453.685 12.9375 405.742 0 355 0 c 0
 189.666 0 55 134.672 55 300 c 0
 55 465.328 189.666 600 355 600 c 0xef80
355 540 m 0
 222.092 540 115 432.901 115 299.999 c 0
 115 167.097 222.092 59.999 355 59.999 c 0
 389.67 59.999 421.891 68.5713 451.562 81.749 c 1
 451.562 166.688 l 1
 424.386 146.911 391.063 134.999 354.999 134.999 c 0
 264.226 134.999 189.999 209.226 189.999 299.999 c 0
 189.999 390.778 264.231 464.999 354.999 464.999 c 0xef80
 372.741 464.999 389.604 461.688 405.438 456.562 c 1
 536.5 456.562 l 1
 492.555 507.516 427.797 540 355 540 c 0
EndSplineSet
Validated: 1
EndChar

StartChar: h
Encoding: 104 104 53
Width: 673
GlyphClass: 2
Flags: MW
HStem: 0 21G<73 132.062 73 73 191.123 250.188 191.123 191.123 418.938 478 418.938 418.938 537.062 596.125 537.062 537.062> 0 21G<73 132.062 73 73 191.123 250.188 191.123 191.123 418.938 478 418.938 418.938 537.062 596.125 537.062 537.062> 205.5 59.062 323.625 59.063 534.562 59.063
VStem: 73 59.062 191.124 59.064 418.938 59.062 537.062 59.063
LayerCount: 2
Fore
SplineSet
418.938 593.625 m 1xbf80
 596.125 593.625 l 1
 596.125 323.625 l 1
 250.188 323.625 l 1
 250.188 264.562 l 1
 596.125 264.562 l 1
 596.125 0 l 1
 537.062 0 l 1
 537.062 205.5 l 1
 478 205.5 l 1
 478 0 l 1
 418.938 0 l 1
 418.938 205.5 l 1
 250.188 205.5 l 1
 250.188 0 l 1
 191.123 0 l 1
 191.123 593 l 1
 250.188 593 l 1
 250.188 382.688 l 1
 418.938 382.688 l 1
 418.938 593.625 l 1xbf80
73 593 m 1
 132.062 593 l 1
 132.062 0 l 1
 73 0 l 1
 73 593 l 1
478 534.562 m 1
 478 382.688 l 1
 537.062 382.688 l 1
 537.062 534.562 l 1
 478 534.562 l 1
EndSplineSet
Validated: 1
EndChar

StartChar: i
Encoding: 105 105 54
Width: 327
GlyphClass: 2
Flags: MW
HStem: 0 21G<73 132.062 73 73 191.125 250.188 191.125 191.125> 0 21G<73 132.062 73 73 191.125 250.188 191.125 191.125> 532.562 59.063
VStem: 73 59.062 191.125 59.063
LayerCount: 2
Fore
SplineSet
73 591.625 m 1xb8
 250.188 591.625 l 1
 250.188 0 l 1
 191.125 0 l 1
 191.125 532.562 l 1
 132.062 532.562 l 1
 132.062 0 l 1
 73 0 l 1
 73 591.625 l 1xb8
EndSplineSet
Validated: 1
EndChar

StartChar: j
Encoding: 106 106 55
Width: 577
GlyphClass: 2
Flags: MW
HStem: 166.531 60 539.719 53.062
VStem: 322.438 59.437 440.562 59.063
LayerCount: 2
Fore
SplineSet
322.438 592.781 m 1
 499.625 592.781 l 1
 499.625 -9.65625 l 1
 440.562 -9.65625 l 1
 440.562 539.719 l 1
 381.5 539.719 l 1
 381.875 -10 l 1
 343.438 -10 l 2
 214.262 -10 103.895 71.2402 61.8125 186.219 c 2
 47 226.531 l 1
 252.312 226.531 l 1
 261.312 218.095 l 2
 279.301 200.716 299.809 186.226 322.438 175.156 c 1
 322.438 592.781 l 1
137.938 166.531 m 1
 176.305 102.424 243.323 57.8643 321.874 50.8447 c 1
 321.874 110.47 l 1
 287.479 123.488 256.426 142.607 229.438 166.531 c 1
 137.938 166.531 l 1
EndSplineSet
Validated: 1
EndChar

StartChar: k
Encoding: 107 107 56
Width: 751
GlyphClass: 2
Flags: HMW
HStem: 0 59.5312 573.152 20G 573.152 20G
VStem: 73 59.062 174.249 59.063
LayerCount: 2
Fore
SplineSet
233.312 387.28 m 4
 233.5 387.5 174.248 447 174.248 447 c 5
 174.248 593.152 l 5
 233.312 593.152 l 5
 233.312 394.781 l 5
 408.625 593.152 l 5
 492.062 593.152 l 5
 313 391.031 l 5
 354.625 349.219 l 5
 575.5 593.151 l 5
 654.812 593.151 l 5
 396.438 307.594 l 5
 704.875 0 l 5
 453.062 0 l 5
 233.312 220.219 l 5
 233.312 0.09375 l 5
 174.248 0.09375 l 5
 174.248 279.281 l 5
 132.062 321.469 l 5
 132.062 0.09375 l 5
 73 0.09375 l 5
 73 593.152 l 5
 132.062 593.151 l 5
 132.062 405.094 l 5
 174.248 362.906 l 5
 233.312 303.843 l 5
 477.438 59.5303 l 5
 561.438 59.1553 l 5
 233.312 387.28 l 5xb8
EndSplineSet
Validated: 524323
EndChar

StartChar: l
Encoding: 108 108 57
Width: 536
GlyphClass: 2
Flags: MW
HStem: 0 60<133 474.25 133 474.25> 126.562 60 533 60<133 208 133 133>
VStem: 73 60<60 533 60 593> 208 60<186.562 533 533 533>
LayerCount: 2
Fore
SplineSet
73 0 m 1
 73 593 l 1
 268 593 l 1
 268 186.562 l 1
 474.25 186.562 l 1
 474.25 126.562 l 1
 208 126.562 l 1
 208 533 l 1
 133 533 l 1
 133 60 l 1
 474.25 60 l 1
 474.25 0 l 1
 73 0 l 1
EndSplineSet
Validated: 1
EndChar

StartChar: m
Encoding: 109 109 58
Width: 901
GlyphClass: 2
Flags: MW
HStem: 0 53<681.5 764.938 681.5 824.938> 636 20G<73 73 682 682 825 825>
VStem: 73.0625 59.9995 216.5 60<0 208.062 0 311.75> 621.5 60<53 207.688 207.688 207.688 53 327.875 431.75 456.312 456.312 456.312> 764.938 60
LayerCount: 2
Fore
SplineSet
73.0625 593 m 1
 73 656 l 1
 377.562 152.938 l 1
 682 656 l 1
 681.5 593 l 1
 681.5 431.75 l 1
 825 656 l 1
 824.938 593 l 1
 824.938 0 l 1
 621.5 0 l 1
 621.5 207.688 l 1
 520.812 33.3125 l 1
 449.188 157.438 l 1
 377.375 33.3125 l 1
 276.5 208.062 l 1
 276.5 0 l 1
 216.5 0 l 1
 216.5 311.75 l 1
 133.062 456.5 l 1
 133.062 0 l 1
 73.0625 0 l 1
 73.0625 593 l 1
621.5 456.312 m 1
 483.688 217.438 l 1
 520.812 153.312 l 1
 621.5 327.688 l 1
 621.5 327.875 l 1
 621.5 456.312 l 1
764.938 456.125 m 1
 681.5 311.375 l 1
 681.5 53 l 1
 764.938 53 l 1
 764.938 456.125 l 1
EndSplineSet
Validated: 1
EndChar

StartChar: n
Encoding: 110 110 59
Width: 742
GlyphClass: 2
Flags: MW
HStem: 0 60<133 191.125 133 251.125> 0.0625 21G<664.562 664.562> 573.438 20G 573.438 20G
VStem: 73 60<60 481.5 60 658.5> 191.125 60<60 327.188 0 405.562> 486.438 60 604.562 60
LayerCount: 2
Fore
SplineSet
73 658.5 m 1x8f
 486.438 118.5 l 1
 486.438 593.438 l 1
 546.438 593.438 l 1
 546.438 211.312 l 1
 604.562 145.188 l 1
 604.562 593.438 l 1
 664.562 593.438 l 1
 664.562 0.0625 l 1x6f
 546.438 126.562 l 1
 546.438 -58.5 l 1
 251.125 327.188 l 1
 251.125 0 l 1
 73 0 l 1
 73 658.5 l 1x8f
133 481.5 m 1
 133 60 l 1
 191.125 60 l 1x8f
 191.125 405.562 l 1
 133 481.5 l 1
EndSplineSet
Validated: 1
EndChar

StartChar: o
Encoding: 111 111 60
Width: 718
GlyphClass: 2
Flags: MW
HStem: 0 60 413.438 60 540 60
VStem: 55 60 181.562 60 595 60
LayerCount: 2
Fore
SplineSet
355 600 m 0
 408.771 600 459.459 585.64 503.123 560.812 c 2
 537.437 541.312 l 1
 444.437 448.5 l 1
 464.177 436.611 481.257 420.873 494.874 402.375 c 1
 586.749 494.062 l 1
 606.999 462.751 l 2
 637.386 415.864 654.999 359.966 654.999 300.001 c 0
 654.999 134.667 520.333 0.000976562 354.999 0.000976562 c 0
 295.034 0.000976562 239.143 17.8076 192.25 48.1885 c 2
 160.938 68.4385 l 1
 252.812 160.312 l 1
 234.332 173.865 218.582 190.91 206.688 210.562 c 1
 113.688 117.751 l 1
 94.1875 152.062 l 2
 69.3613 195.738 55 246.234 55 300 c 0
 55 465.328 189.666 600 355 600 c 0
354.998 540.001 m 0
 222.09 540.001 114.998 432.904 114.998 300.002 c 0
 114.998 271.268 120.576 244.08 129.811 218.627 c 1
 183.811 272.814 l 1
 182.404 281.675 181.561 290.757 181.561 300.003 c 0
 181.561 395.429 259.561 473.44 354.998 473.44 c 0
 363.166 473.41 372.846 472.385 382.373 471.189 c 1
 436.373 525.376 l 1
 410.949 534.587 383.697 540.001 354.998 540.001 c 0
354.998 413.439 m 0
 291.986 413.439 241.56 363.002 241.56 300.002 c 0
 241.56 258.875 263.34 223.145 295.748 203.252 c 1
 451.748 359.063 l 1
 431.873 391.561 396.184 413.439 354.998 413.439 c 0
574.372 396.752 m 1
 258.247 80.8135 l 1
 287.89 67.6592 320.374 60.001 354.997 60.001 c 0
 487.911 60.001 594.997 167.093 594.997 300.001 c 0
 594.997 334.53 587.456 367.18 574.372 396.752 c 1
EndSplineSet
Validated: 1
EndChar

StartChar: p
Encoding: 112 112 61
Width: 592
GlyphClass: 2
Flags: MW
HStem: 0 21G<72 132 72 72 198.562 258.562 198.562 198.562> 0 21G<72 132 72 72 198.562 258.562 198.562 198.562> 540.25 60
VStem: 72 60<0 534.625 0 583.562 0 583.562> 198.562 60 350.438 60 468.562 60
LayerCount: 2
Fore
SplineSet
189.375 600.25 m 0xbe
 207.07 600.508 226.008 599.688 245.25 597.062 c 0
 250.617 596.329 255.943 595.479 261.375 594.438 c 1
 289.061 598.141 327.772 600.823 367.874 595.188 c 0
 405.421 589.907 445.288 577.188 476.812 548.125 c 0
 508.336 519.062 528.562 473.758 528.562 414.625 c 0
 528.562 298.756 462.633 235.867 400.125 210.625 c 0
 338.578 185.77 279.885 190.598 278.062 190.75 c 2
 276.938 190.75 l 1
 258.562 191.5 l 1
 258.562 0 l 1
 198.562 0 l 1
 198.562 540.25 l 1
 170.959 540.508 147.761 537.379 132 534.625 c 1
 132 0 l 1
 72 0 l 1
 72 583.562 l 1
 95.0625 589.188 l 1
 95.0625 589.188 136.295 599.482 189.375 600.25 c 0xbe
373.125 533.312 m 1
 396.246 504.72 410.437 465.355 410.437 416.5 c 0
 410.437 345.93 388.253 294.08 356.437 259.375 c 1
 363.449 261.326 370.517 263.629 377.624 266.5 c 0
 424.804 285.555 468.561 319.557 468.561 414.625 c 0
 468.561 460.961 455.226 486.455 436.124 504.062 c 0
 419.987 518.939 397.688 528.238 373.125 533.312 c 1
260.811 533.125 m 0
 260.138 533.008 259.22 532.867 258.562 532.75 c 2
 258.562 265.375 l 1
 273.435 270.9 287.953 278.601 300.75 289.188 c 0
 328.377 312.046 350.438 347.571 350.438 416.501 c 0
 350.438 462.638 336.702 487.839 316.874 505.562 c 0
 302.179 518.705 282.648 527.635 260.811 533.125 c 0
EndSplineSet
Validated: 33
EndChar

StartChar: q
Encoding: 113 113 62
Width: 791
GlyphClass: 2
Flags: MW
HStem: -10 60 99.6885 60.1865 430.312 60 540 60
VStem: 55 60 164.688 60.186 485.312 60 595 60
LayerCount: 2
Fore
SplineSet
355 600 m 0
 520.334 600 655.002 455.328 655.002 290 c 0
 655.002 237.307 640.693 187.987 616.752 144.874 c 1
 743.127 19.999 l 1
 657.627 19.999 l 1
 540.439 135.688 l 1
 554.313 156.312 l 2
 580.014 194.538 595.002 240.354 595.002 289.999 c 0
 595.002 422.901 487.91 539.999 355.002 539.999 c 0
 222.094 539.999 115.002 422.901 115.002 289.999 c 0
 115.002 157.091 222.094 49.999 355.002 49.999 c 0
 386.01 49.999 415.26 56.2158 442.377 66.874 c 1
 403.19 106.061 l 1
 387.757 101.978 371.655 99.6875 355.003 99.6875 c 0
 250.249 99.6875 164.691 185.245 164.691 289.999 c 0
 164.691 394.747 250.243 490.312 355.003 490.312 c 0
 459.757 490.312 545.314 394.747 545.314 289.999 c 0
 545.314 250.864 533.427 214.35 513.064 184.062 c 1
 463.19 217.438 l 1
 477.147 238.196 485.314 262.981 485.314 289.999 c 0
 485.314 362.327 427.33 430.312 355.002 430.312 c 0
 305.268 430.312 262.235 402.879 240.252 362.25 c 1
 241.188 363.188 l 1
 541.938 52.25 l 1
 508.938 32.5625 l 2
 463.949 5.62695 411.156 -10 355 -10 c 0
 189.666 -10 55 124.666 55 290 c 0
 55 455.328 189.666 600 355 600 c 0
224.876 284.562 m 1
 227.619 216.582 281.584 162.623 349.564 159.875 c 1
 224.876 284.562 l 1
EndSplineSet
Validated: 1
EndChar

StartChar: r
Encoding: 114 114 63
Width: 757
GlyphClass: 2
Flags: MW
HStem: -1 59.0625 542.312 55.876
VStem: 73 59.062 190.938 59.25 402.062 58.876 528.438 59.25
LayerCount: 2
Fore
SplineSet
296.875 602.5 m 0
 324.93 602.975 360.297 601.328 398.688 594.438 c 0
 442.948 586.492 489.12 571.48 525.812 540.438 c 0
 562.504 509.395 587.688 461.103 587.688 398.876 c 0
 587.688 312.503 559.305 257.39 528.812 225.626 c 0
 521.229 217.733 513.59 211.061 506.125 205.752 c 1
 713.688 -0.998047 l 1
 478.374 -0.998047 l 1
 250.188 226.19 l 1
 250.188 0.626953 l 1
 190.938 0.626953 l 1
 190.938 542.313 l 1
 165.883 543.129 146.399 542.08 132.062 540.627 c 1
 132.062 0.626953 l 1
 73 0.626953 l 1
 73 592.939 l 1
 97.9375 596.876 l 1
 97.9375 596.876 163.68 606.005 238.938 598.188 c 1
 248.172 599.431 268.82 602.025 296.875 602.5 c 0
250.188 537.812 m 1
 250.188 232.562 l 1
 299.124 242.312 l 1
 299.124 242.312 323.2 247.094 349.188 268.75 c 0
 375.174 290.406 402.062 326.494 402.062 398.875 c 0
 402.062 446.336 386.008 473.897 361 495.062 c 0
 335.992 516.227 299.816 529.491 261.812 536.312 c 0
 257.894 537.016 254.032 537.455 250.188 537.812 c 1
408.25 530.688 m 1
 439.598 499.654 460.938 455.446 460.938 398.874 c 0
 460.938 310.942 424.546 254.266 387.251 223.188 c 0
 376.962 214.614 366.767 208.305 357.062 202.938 c 1
 502.75 58.0615 l 1
 571.188 58.0615 l 1
 398.875 229.374 l 1
 449.5 241.938 l 1
 449.5 241.938 465.93 245.336 486.062 266.312 c 0
 506.194 287.282 528.438 324.936 528.438 398.875 c 0
 528.438 446.336 512.569 473.897 487.562 495.062 c 0
 467.137 512.348 438.502 523.157 408.25 530.688 c 1
EndSplineSet
Validated: 33
EndChar

StartChar: s
Encoding: 115 115 64
Width: 564
GlyphClass: 2
Flags: MW
HStem: -9 60<274.944 312.062 312.062 312.25> 142.875 60<49 49.375> 178.406 60 305.062 60 427.125 60<405.438 488.688 405.438 488.688 348.812 488.688> 540 60<240.862 286.896>
VStem: 102.812 60 121.188 60 443.125 60
LayerCount: 2
Fore
SplineSet
263.875 600 m 0xdd80
 332.195 600 391.293 551.818 405.438 487.125 c 1
 488.688 487.125 l 1
 488.688 427.125 l 1
 348.812 427.125 l 1
 348.812 457.125 l 2
 348.812 502.482 309.918 540 263.875 540 c 0
 217.85 540 181.188 503.156 181.188 457.125 c 0xdd80
 181.188 411.076 217.85 365.062 263.875 365.062 c 2
 312.812 365.062 l 2
 417.625 364.677 503.125 278.345 503.125 173.438 c 0
 503.125 68.3086 415.486 -9 312.25 -9 c 2
 312.062 -9 l 2
 219.098 -9 139.469 54 124.374 143.25 c 1
 49.375 142.875 l 1
 49 202.875 l 1
 165.812 203.625 l 1
 127.948 229.371 102.812 272.613 102.812 321.562 c 0xde80
 102.812 351.75 112.356 380.139 128.5 403.312 c 1
 123.782 417.422 121.188 441.475 121.188 457.125 c 0
 121.188 535.582 185.418 600 263.875 600 c 0xdd80
166.188 344.812 m 1
 164.261 338.039 163.188 329.736 162.812 321.562 c 0
 162.812 275.515 199.47 238.406 245.502 238.406 c 2
 294.626 238.406 l 2xbe80
 354.485 238.185 408.005 209.843 442.938 166.312 c 1
 443.056 168.662 443.126 171.035 443.126 173.438 c 0
 443.126 246.158 384.96 305.062 312.251 305.062 c 2
 263.126 305.062 l 2
 225.661 305.251 191.63 320.843 166.188 344.812 c 1
181.188 194.438 m 1xbd80
 181.188 173.438 l 2
 181.188 100.74 237.638 51 312.251 51 c 0
 355.247 51 392.155 67.4766 415.751 95.4385 c 1
 396.544 143.748 349.399 178.406 293.876 178.406 c 2
 245.502 178.406 l 2
 222.386 178.406 200.56 184.564 181.188 194.438 c 1xbd80
EndSplineSet
Validated: 1
EndChar

StartChar: t
Encoding: 116 116 65
Width: 692
GlyphClass: 2
Flags: MW
HStem: 0 21G<239.938 299.938 239.938 239.938 383.375 443.375 383.375 383.375> 0 21G<239.938 299.938 239.938 239.938 383.375 443.375 383.375 383.375> 413.875 60.563 532 60<59 239.938 59 629 299.938 383.375 299.938 299.938 443.375 569 443.375 443.375>
VStem: 239.938 60 383.375 60<0 412.938 0 413.875 0 413.875 474.438 532> 569 60<472.938 532 532 532>
LayerCount: 2
Fore
SplineSet
59 592 m 1xbe
 629 592 l 1
 629 412.938 l 1
 443.375 412.938 l 1
 443.375 0 l 1
 383.375 0 l 1
 383.375 412.938 l 1
 383.375 413.875 l 1
 299.938 413.875 l 1
 299.938 0 l 1
 239.938 0 l 1
 239.938 413.875 l 1
 59 413.875 l 1
 59 473.875 l 1
 239.938 474.438 l 1
 239.938 532 l 1
 59 532 l 1
 59 592 l 1xbe
299.938 532 m 1
 299.938 474.438 l 1
 383.375 474.438 l 1
 383.375 532 l 1
 299.938 532 l 1
443.375 532 m 1
 443.375 472.938 l 1
 569 472.938 l 1
 569 532 l 1
 443.375 532 l 1
EndSplineSet
Validated: 1
EndChar

StartChar: u
Encoding: 117 117 66
Width: 738
GlyphClass: 2
Flags: MW
HStem: -10 60<331.425 381.379 331.425 411.05> 533 60<125.998 125.998 125.998 175.687>
VStem: 66 60 175.688 60 479.438 60 606 60<290 591>
LayerCount: 2
Fore
SplineSet
66 593 m 1
 235.687 593 l 1
 235.687 375.938 l 2
 235.687 286.153 284.882 198.26 357.561 157.062 c 1
 430.24 198.26 479.437 286.137 479.437 375.938 c 2
 479.437 591 l 1
 539.437 591 l 1
 539.437 375.938 l 2
 539.437 280.997 495.093 186.188 425.999 131.188 c 1
 442.03 127.807 458.602 125.938 475.688 125.938 c 0
 502.354 125.938 527.918 130.313 551.812 138.312 c 1
 585.68 179.686 606 232.25 606 290 c 2
 606 591 l 1
 666 591 l 1
 666 290 l 2
 666 214.742 638.027 145.783 592.125 93.125 c 0
 537.17 30.0723 456.1 -10 366 -10 c 0
 279.955 -10 202.049 26.4805 147.375 84.6875 c 0
 96.9844 138.312 66 210.711 66 290 c 2
 66 593 l 1
125.998 533 m 1
 125.998 290 l 2
 125.998 226.291 150.672 168.916 191.06 125.938 c 0
 234.877 79.291 296.852 50 365.998 50 c 0
 396.76 50 425.494 56.7559 452.437 67.25 c 1
 414.033 70.2207 377.465 80.0117 344.436 96.125 c 0
 244.498 144.828 175.687 257.59 175.687 375.938 c 2
 175.687 533 l 1
 125.998 533 l 1
EndSplineSet
Validated: 1
EndChar

StartChar: v
Encoding: 118 118 67
Width: 791
GlyphClass: 2
Flags: MW
HStem: 524.688 67.5
LayerCount: 2
Fore
SplineSet
49 592.188 m 1
 275.688 592.188 l 1
 393.625 379.812 l 1
 511.75 592.188 l 1
 580.938 592.188 l 1
 393.625 259.812 l 1
 245.5 524.688 l 1
 157.188 524.688 l 1
 393.625 107 l 1
 669.25 592.188 l 1
 738.438 592.188 l 1
 393.625 -13 l 1
 49 592.188 l 1
EndSplineSet
Validated: 1
EndChar

StartChar: w
Encoding: 119 119 68
Width: 1104
GlyphClass: 2
Flags: MW
HStem: 524.688 67.5
LayerCount: 2
Fore
SplineSet
49 592.188 m 1
 275.688 592.188 l 1
 434.688 316.188 l 1
 393.812 261.812 l 1
 245.502 524.688 l 1
 157.188 524.688 l 1
 393.812 109 l 1
 669.25 592.188 l 1
 738.438 592.188 l 1
 393.812 -11 l 1
 49 592.188 l 1
823.938 592.188 m 1
 893.125 592.188 l 1
 706 261.812 l 1
 652.562 354.25 l 1
 692.125 405.812 l 1
 706 381.812 l 1
 823.938 592.188 l 1
981.438 592.188 m 1
 1050.62 592.188 l 1
 706 -11 l 1
 586.562 198.062 l 1
 620.312 257.125 l 1
 706 109 l 1
 981.438 592.188 l 1
EndSplineSet
Validated: 1
EndChar

StartChar: x
Encoding: 120 120 69
Width: 765
GlyphClass: 2
Flags: MW
HStem: 0 60<499.689 599.252 499.689 703.127 465.002 599.252> 532.062 60
LayerCount: 2
Fore
SplineSet
57.5625 592.062 m 1
 295.688 592.062 l 1
 380.438 449.25 l 1
 474.875 591.25 l 1
 544.25 591.25 l 1
 295.875 183.188 l 1
 264.75 237.375 l 1
 117.625 0.25 l 1
 49 0.25 l 1
 229.875 297.75 l 1
 57.5625 592.062 l 1
640.625 591.25 m 1
 709.627 591.25 l 1
 531.002 298.125 l 1
 703.127 0 l 1
 465.002 0 l 1
 380.439 146.812 l 1
 282.251 0.25 l 1
 213.062 0.25 l 1
 464.812 412.875 l 1
 496.125 358.5 l 1
 640.625 591.25 l 1
161.627 532.062 m 1
 296.064 303.188 l 1
 345.752 389.25 l 1
 261.002 532.062 l 1
 161.627 532.062 l 1
464.814 292.875 m 1
 414.939 206.812 l 1
 499.689 60 l 1
 599.252 60 l 1
 496.69 237.75 l 1
 464.814 292.875 l 1
EndSplineSet
Validated: 1
EndChar

StartChar: y
Encoding: 121 121 70
Width: 801
GlyphClass: 2
Flags: MW
HStem: 0 21G<314.5 376.562 314.5 314.5 424.188 484.188 424.188 424.188> 0 21G<314.5 376.562 314.5 314.5 424.188 484.188 424.188 424.188> 571 20G<49 133.938 133.938 133.938 197.688 282.625 282.625 282.625 518.125 603.062 603.062 603.062 664.75 749.688 749.688 749.688> 571 20G<49 133.938 133.938 133.938 197.688 282.625 282.625 282.625 518.125 603.062 603.062 603.062 664.75 749.688 749.688 749.688>
VStem: 314.5 62.062 424.188 60
LayerCount: 2
Fore
SplineSet
49 591 m 1xac
 133.938 591 l 1
 374.5 350.25 l 1
 374.5 300.75 l 1
 664.75 591 l 1
 749.688 591 l 1
 484.188 325.688 l 1
 484.188 0 l 1
 424.188 0 l 1
 424.188 265.688 l 1
 376.562 218.062 l 1
 376.562 0 l 1
 314.5 0 l 1
 314.5 325.688 l 1
 49 591 l 1xac
197.688 591 m 1
 282.625 591 l 1
 400.375 473.25 l 1
 518.125 591 l 1
 603.062 591 l 1
 400.375 388.125 l 1
 197.688 591 l 1
EndSplineSet
Validated: 1
EndChar

StartChar: z
Encoding: 122 122 71
Width: 693
GlyphClass: 2
Flags: MW
HStem: 0 60.75<318.031 625.219 318.031 625.219> 112.688 60 428.312 60 529.75 61.781
LayerCount: 2
Fore
SplineSet
564.219 591.531 m 1
 633.406 591.531 l 1
 383.656 172.688 l 1
 625.219 172.688 l 1
 625.219 112.688 l 1
 348.594 112.688 l 1
 318.031 60.75 l 1
 625.219 60.75 l 1
 625.219 0 l 1
 213.219 0 l 1
 564.219 591.531 l 1
59 591.531 m 1
 478.344 591.531 l 1
 130.344 0 l 1
 66.5938 0 l 1
 314.656 428.312 l 1
 59 428.312 l 1
 59 488.312 l 1
 349.719 488.312 l 1
 373.906 529.75 l 1
 59 529.75 l 1
 59 591.531 l 1
EndSplineSet
Validated: 1
EndChar

StartChar: yen
Encoding: 165 165 72
Width: 788
GlyphClass: 2
Flags: MW
HStem: 0 21G<308.312 370.375 308.312 308.312 418 478 418 418> 0 21G<308.312 370.375 308.312 308.312 418 478 418 418> 248.812 60 358.5 60<152.688 215.5 152.688 275.5 152.688 215.5 571.188 650.5> 571 20G<43 127.75 127.75 127.75 191.5 276.438 276.438 276.438 511.938 596.875 596.875 596.875 658.75 743.5 743.5 743.5> 571 20G<43 127.75 127.75 127.75 191.5 276.438 276.438 276.438 511.938 596.875 596.875 596.875 658.75 743.5 743.5 743.5>
VStem: 308.312 62.063 418 60<0 248.812 0 265.5 0 265.5>
LayerCount: 2
Fore
SplineSet
43 591 m 1xbb
 127.75 591 l 1
 368.312 350.25 l 1
 368.312 300.562 l 1
 658.75 591 l 1
 743.5 591 l 1
 571.188 418.5 l 1
 650.5 418.5 l 1
 650.5 358.5 l 1
 511.188 358.5 l 1
 478 325.312 l 1
 478 308.812 l 1
 650.5 308.812 l 1
 650.5 248.812 l 1
 478 248.812 l 1
 478 0 l 1
 418 0 l 1
 418 265.5 l 1
 370.375 217.875 l 1
 370.375 0 l 1
 308.312 0 l 1
 308.312 248.812 l 1
 152.688 248.812 l 1
 152.688 308.812 l 1
 308.312 308.812 l 1
 308.312 325.688 l 1
 275.5 358.5 l 1
 152.688 358.5 l 1
 152.688 418.5 l 1
 215.5 418.5 l 1
 43 591 l 1xbb
191.5 591 m 1
 276.438 591 l 1
 394.188 473.25 l 1
 511.938 591 l 1
 596.875 591 l 1
 394.188 388.125 l 1
 191.5 591 l 1
EndSplineSet
Validated: 1
EndChar

StartChar: guillemotleft
Encoding: 171 171 73
Width: 991
GlyphClass: 2
Flags: W
LayerCount: 2
Fore
SplineSet
919.062 600.875 m 1
 506 362.562 l 1
 660.875 273.125 l 1
 506 183.875 l 1
 918.875 -54.625 l 1
 918.875 193.438 l 1
 780.875 273.125 l 1
 919.062 352.812 l 1
 919.062 600.875 l 1
859.062 497 m 1
 859.062 387.5 l 1
 720.875 307.812 l 1
 626 362.562 l 1
 859.062 497 l 1
720.875 238.438 m 1
 858.875 158.75 l 1
 858.875 49.25 l 1
 626 183.875 l 1
 720.875 238.438 l 1
468.062 617.875 m 1
 55 379.562 l 1
 209.875 290.125 l 1
 55 200.875 l 1
 467.875 -37.625 l 1
 467.875 210.438 l 1
 329.875 290.125 l 1
 468.062 369.812 l 1
 468.062 617.875 l 1
408.062 514 m 1
 408.062 404.5 l 1
 269.875 324.812 l 1
 175 379.562 l 1
 408.062 514 l 1
269.875 255.438 m 1
 407.875 175.75 l 1
 407.875 66.25 l 1
 175 200.875 l 1
 269.875 255.438 l 1
EndSplineSet
Validated: 9
EndChar

StartChar: guillemotright
Encoding: 187 187 74
Width: 991
GlyphClass: 2
Flags: MW
HStem: 580.875 20G<73 73> 580.875 20G<73 73>
VStem: 73.1875 60.0005 524.188 60
LayerCount: 2
Fore
SplineSet
73 600.875 m 1xb0
 486.062 362.562 l 1
 331.188 273.125 l 1
 486.062 183.875 l 1
 73.1875 -54.625 l 1
 73.1875 193.438 l 1
 211.188 273.125 l 1
 73 352.812 l 1
 73 600.875 l 1xb0
133 497 m 1
 133 387.5 l 1
 271.188 307.812 l 1
 366.062 362.562 l 1
 133 497 l 1
271.188 238.438 m 1
 133.188 158.75 l 1
 133.188 49.25 l 1
 366.062 183.875 l 1
 271.188 238.438 l 1
524 617.875 m 1
 937.062 379.562 l 1
 782.188 290.125 l 1
 937.062 200.875 l 1
 524.188 -37.625 l 1
 524.188 210.438 l 1
 662.188 290.125 l 1
 524 369.812 l 1
 524 617.875 l 1
584 514 m 1
 584 404.5 l 1
 722.188 324.812 l 1
 817.062 379.562 l 1
 584 514 l 1
722.188 255.438 m 1
 584.188 175.75 l 1
 584.188 66.25 l 1
 817.062 200.875 l 1
 722.188 255.438 l 1
EndSplineSet
Validated: 1
EndChar

StartChar: Agrave
Encoding: 192 192 75
Width: 812
GlyphClass: 2
Flags: HMW
HStem: 0.25 60<554.562 655.812 554.562 762.5 518.562 655.812> 636 20G<393.688 393.688>
LayerCount: 2
Fore
SplineSet
272.534 829.192 m 5
 528.165 748.715 l 5
 509.549 689.575 l 5
 253.918 770.053 l 5
 272.534 829.192 l 5
393.688 656 m 1
 762.5 0.25 l 1
 518.562 0.25 l 1
 393.688 240.688 l 1
 287 0 l 1
 217.625 0 l 1
 393.688 360.688 l 1
 554.562 60.25 l 1
 655.812 60.25 l 1
 393.688 536 l 1
 116.375 0 l 1
 47 0 l 1
 393.688 656 l 1
EndSplineSet
Validated: 524289
EndChar

StartChar: Aacute
Encoding: 193 193 76
Width: 812
GlyphClass: 2
Flags: HMW
HStem: 0.25 60<554.562 655.812 554.562 762.5 518.562 655.812> 636 20G<393.688 393.688>
LayerCount: 2
Fore
SplineSet
542.577 753.454 m 5
 282.744 687.797 l 5
 267.555 747.908 l 5
 527.388 813.563 l 5
 542.577 753.454 l 5
393.688 656 m 1
 762.5 0.25 l 1
 518.562 0.25 l 1
 393.688 240.688 l 1
 287 0 l 1
 217.625 0 l 1
 393.688 360.688 l 1
 554.562 60.25 l 1
 655.812 60.25 l 1
 393.688 536 l 1
 116.375 0 l 1
 47 0 l 1
 393.688 656 l 1
EndSplineSet
Validated: 524289
EndChar

StartChar: Acircumflex
Encoding: 194 194 77
Width: 812
GlyphClass: 2
Flags: MW
HStem: 0.25 60<554.562 655.812 554.562 762.5 518.562 655.812> 636 20G<393.688 393.688> 726.266 62
LayerCount: 2
Fore
SplineSet
247.231 788.266 m 1
 515.23 788.265 l 1
 515.231 726.265 l 1
 247.232 726.266 l 1
 247.231 788.266 l 1
393.688 656 m 1
 762.5 0.25 l 1
 518.562 0.25 l 1
 393.688 240.688 l 1
 287 0 l 1
 217.625 0 l 1
 393.688 360.688 l 1
 554.562 60.25 l 1
 655.812 60.25 l 1
 393.688 536 l 1
 116.375 0 l 1
 47 0 l 1
 393.688 656 l 1
EndSplineSet
Validated: 1
EndChar

StartChar: Atilde
Encoding: 195 195 78
Width: 812
GlyphClass: 2
Flags: MW
HStem: 0.25 60<554.562 655.812 554.562 762.5 518.562 655.812> 636 20G<393.688 393.688>
LayerCount: 2
Fore
SplineSet
393.688 656 m 1
 762.5 0.25 l 1
 518.562 0.25 l 1
 393.688 240.688 l 1
 287 0 l 1
 217.625 0 l 1
 393.688 360.688 l 1
 554.562 60.25 l 1
 655.812 60.25 l 1
 393.688 536 l 1
 116.375 0 l 1
 47 0 l 1
 393.688 656 l 1
EndSplineSet
Validated: 1
EndChar

StartChar: Adieresis
Encoding: 196 196 79
Width: 812
GlyphClass: 2
Flags: MW
HStem: 0.25 60<554.562 655.812 554.562 762.5 518.562 655.812> 636 20G<393.688 393.688> 726.266 62
VStem: 286.232 68.999 424.232 68.999
LayerCount: 2
Fore
SplineSet
424.231 788.266 m 1
 493.23 788.265 l 1
 493.231 726.265 l 1
 424.232 726.266 l 1
 424.231 788.266 l 1
286.231 788.266 m 1
 355.23 788.265 l 1
 355.231 726.265 l 1
 286.232 726.266 l 1
 286.231 788.266 l 1
393.688 656 m 1
 762.5 0.25 l 1
 518.562 0.25 l 1
 393.688 240.688 l 1
 287 0 l 1
 217.625 0 l 1
 393.688 360.688 l 1
 554.562 60.25 l 1
 655.812 60.25 l 1
 393.688 536 l 1
 116.375 0 l 1
 47 0 l 1
 393.688 656 l 1
EndSplineSet
Validated: 1
EndChar

StartChar: Aring
Encoding: 197 197 80
Width: 812
GlyphClass: 2
Flags: HMW
HStem: 0.25 60<554.562 655.812 554.562 762.5 518.562 655.812> 636 20G<393.688 393.688>
LayerCount: 2
Fore
SplineSet
334 740 m 4
 334 773.12 360.88 800 394 800 c 4
 427.12 800 454 773.12 454 740 c 4
 454 706.88 427.12 680 394 680 c 4
 360.88 680 334 706.88 334 740 c 4
393.688 656 m 1
 762.5 0.25 l 1
 518.562 0.25 l 1
 393.688 240.688 l 1
 287 0 l 1
 217.625 0 l 1
 393.688 360.688 l 1
 554.562 60.25 l 1
 655.812 60.25 l 1
 393.688 536 l 1
 116.375 0 l 1
 47 0 l 1
 393.688 656 l 1
EndSplineSet
Validated: 524289
EndChar

StartChar: AE
Encoding: 198 198 81
Width: 1261
GlyphClass: 2
Flags: MW
HStem: 0 60<790.014 856.575 916.576 1172.08 763.96 856.575> 170.188 60 288.312 60 414.875 60<589.242 589.242 589.242 621.858 555.297 655.806 715.805 937.358 715.805 715.805> 533 60<522.411 522.411 522.411 588.975 648.975 870.528 428.468 904.475 648.975 648.975> 636 20G<393.687 393.687>
LayerCount: 2
Fore
SplineSet
428.468 593 m 1
 870.528 593 l 1
 904.475 533 l 1
 648.975 533 l 1
 681.858 474.875 l 1
 937.358 474.875 l 1
 971.305 414.875 l 1
 715.805 414.875 l 1
 753.463 348.312 l 1
 879.025 348.312 l 1
 979.801 170.188 l 1
 854.237 170.188 l 1
 916.576 60 l 1
 1172.08 60 l 1
 1206.02 0 l 1
 763.96 0 l 1
 428.468 593 l 1
522.411 533 m 1
 555.297 474.875 l 1
 621.858 474.875 l 1
 588.975 533 l 1
 522.411 533 l 1
589.242 414.875 m 1
 626.9 348.312 l 1
 693.464 348.312 l 1
 655.806 414.875 l 1
 589.242 414.875 l 1
660.847 288.312 m 1
 693.729 230.188 l 1
 760.292 230.188 l 1
 727.408 288.312 l 1
 660.847 288.312 l 1
787.407 288.312 m 1
 820.292 230.188 l 1
 886.854 230.188 l 1
 853.971 288.312 l 1
 787.407 288.312 l 1
727.675 170.188 m 1
 790.014 60 l 1
 856.575 60 l 1
 794.236 170.188 l 1
 727.675 170.188 l 1
393.687 656 m 1
 762.498 0.25 l 1
 518.56 0.25 l 1
 393.686 240.688 l 1
 286.998 0 l 1
 217.623 0 l 1
 393.686 360.688 l 1
 554.56 60.25 l 1
 655.81 60.25 l 1
 393.686 536 l 1
 116.373 0 l 1
 46.998 0 l 1
 393.687 656 l 1
EndSplineSet
Validated: 5
EndChar

StartChar: Egrave
Encoding: 200 200 82
Width: 636
GlyphClass: 2
Flags: MW
HStem: 0 60<133 199.562 259.562 567.062> 170.188 60 288.312 60 414.875 60<133 199.562 133 199.562 259.562 567.062> 533 60<133 133 133 199.562 259.562 567.062 259.562 259.562>
VStem: 73 60<60 170.188 230.188 288.312 348.312 414.875 474.875 533> 199.562 60 326.125 60<230.188 288.312 288.312 288.312>
LayerCount: 2
Fore
SplineSet
129.073 737.035 m 1
 383.32 821.783 l 1
 402.928 762.965 l 1
 148.681 678.217 l 1
 129.073 737.035 l 1
73 593 m 1
 567.062 593 l 1
 567.062 533 l 1
 259.562 533 l 1
 259.562 474.875 l 1
 567.062 474.875 l 1
 567.062 414.875 l 1
 259.562 414.875 l 1
 259.562 348.312 l 1
 386.125 348.312 l 1
 386.125 170.188 l 1
 259.562 170.188 l 1
 259.562 60 l 1
 567.062 60 l 1
 567.062 0 l 1
 73 0 l 1
 73 593 l 1
133 533 m 1
 133 474.875 l 1
 199.562 474.875 l 1
 199.562 533 l 1
 133 533 l 1
133 414.875 m 1
 133 348.312 l 1
 199.562 348.312 l 1
 199.562 414.875 l 1
 133 414.875 l 1
133 288.312 m 1
 133 230.188 l 1
 199.562 230.188 l 1
 199.562 288.312 l 1
 133 288.312 l 1
259.562 288.312 m 1
 259.562 230.188 l 1
 326.125 230.188 l 1
 326.125 288.312 l 1
 259.562 288.312 l 1
133 170.188 m 1
 133 60 l 1
 199.562 60 l 1
 199.562 170.188 l 1
 133 170.188 l 1
EndSplineSet
Validated: 1
EndChar

StartChar: Eacute
Encoding: 201 201 83
Width: 636
GlyphClass: 2
Flags: MW
HStem: 0 60<133 199.562 259.562 567.062> 170.188 60 288.312 60 414.875 60<133 199.562 133 199.562 259.562 567.062> 533 60<133 133 133 199.562 259.562 567.062 259.562 259.562>
VStem: 73 60<60 170.188 230.188 288.312 348.312 414.875 474.875 533> 199.562 60 326.125 60<230.188 288.312 288.312 288.312>
LayerCount: 2
Fore
SplineSet
150.505 818.737 m 1
 407.09 741.354 l 1
 389.188 681.994 l 1
 132.604 759.378 l 1
 150.505 818.737 l 1
73 593 m 1
 567.062 593 l 1
 567.062 533 l 1
 259.562 533 l 1
 259.562 474.875 l 1
 567.062 474.875 l 1
 567.062 414.875 l 1
 259.562 414.875 l 1
 259.562 348.312 l 1
 386.125 348.312 l 1
 386.125 170.188 l 1
 259.562 170.188 l 1
 259.562 60 l 1
 567.062 60 l 1
 567.062 0 l 1
 73 0 l 1
 73 593 l 1
133 533 m 1
 133 474.875 l 1
 199.562 474.875 l 1
 199.562 533 l 1
 133 533 l 1
133 414.875 m 1
 133 348.312 l 1
 199.562 348.312 l 1
 199.562 414.875 l 1
 133 414.875 l 1
133 288.312 m 1
 133 230.188 l 1
 199.562 230.188 l 1
 199.562 288.312 l 1
 133 288.312 l 1
259.562 288.312 m 1
 259.562 230.188 l 1
 326.125 230.188 l 1
 326.125 288.312 l 1
 259.562 288.312 l 1
133 170.188 m 1
 133 60 l 1
 199.562 60 l 1
 199.562 170.188 l 1
 133 170.188 l 1
EndSplineSet
Validated: 1
EndChar

StartChar: Ecircumflex
Encoding: 202 202 84
Width: 636
GlyphClass: 2
Flags: MW
HStem: 0 60<133 199.562 259.562 567.062> 170.188 60 288.312 60 414.875 60<133 199.562 133 199.562 259.562 567.062> 533 60<133 133 133 199.562 259.562 567.062 259.562 259.562> 726.266 62
VStem: 73 60<60 170.188 230.188 288.312 348.312 414.875 474.875 533> 199.562 60 326.125 60<230.188 288.312 288.312 288.312>
LayerCount: 2
Fore
SplineSet
168.231 788.266 m 1
 436.23 788.265 l 1
 436.231 726.265 l 1
 168.232 726.266 l 1
 168.231 788.266 l 1
73 593 m 1
 567.062 593 l 1
 567.062 533 l 1
 259.562 533 l 1
 259.562 474.875 l 1
 567.062 474.875 l 1
 567.062 414.875 l 1
 259.562 414.875 l 1
 259.562 348.312 l 1
 386.125 348.312 l 1
 386.125 170.188 l 1
 259.562 170.188 l 1
 259.562 60 l 1
 567.062 60 l 1
 567.062 0 l 1
 73 0 l 1
 73 593 l 1
133 533 m 1
 133 474.875 l 1
 199.562 474.875 l 1
 199.562 533 l 1
 133 533 l 1
133 414.875 m 1
 133 348.312 l 1
 199.562 348.312 l 1
 199.562 414.875 l 1
 133 414.875 l 1
133 288.312 m 1
 133 230.188 l 1
 199.562 230.188 l 1
 199.562 288.312 l 1
 133 288.312 l 1
259.562 288.312 m 1
 259.562 230.188 l 1
 326.125 230.188 l 1
 326.125 288.312 l 1
 259.562 288.312 l 1
133 170.188 m 1
 133 60 l 1
 199.562 60 l 1
 199.562 170.188 l 1
 133 170.188 l 1
EndSplineSet
Validated: 1
EndChar

StartChar: Edieresis
Encoding: 203 203 85
Width: 636
GlyphClass: 2
Flags: MW
HStem: 0 60<133 199.562 259.562 567.062> 170.188 60 288.312 60 414.875 60<133 199.562 133 199.562 259.562 567.062> 533 60<133 133 133 199.562 259.562 567.062 259.562 259.562> 726.266 62
VStem: 73 60<60 170.188 230.188 288.312 348.312 414.875 474.875 533> 199.562 60 326.125 60<230.188 288.312 288.312 288.312>
LayerCount: 2
Fore
SplineSet
326.231 788.266 m 1
 386.23 788.265 l 1
 386.231 726.265 l 1
 326.232 726.266 l 1
 326.231 788.266 l 1
200.231 788.266 m 1
 260.23 788.265 l 1
 260.231 726.265 l 1
 200.232 726.266 l 1
 200.231 788.266 l 1
73 593 m 1
 567.062 593 l 1
 567.062 533 l 1
 259.562 533 l 1
 259.562 474.875 l 1
 567.062 474.875 l 1
 567.062 414.875 l 1
 259.562 414.875 l 1
 259.562 348.312 l 1
 386.125 348.312 l 1
 386.125 170.188 l 1
 259.562 170.188 l 1
 259.562 60 l 1
 567.062 60 l 1
 567.062 0 l 1
 73 0 l 1
 73 593 l 1
133 533 m 1
 133 474.875 l 1
 199.562 474.875 l 1
 199.562 533 l 1
 133 533 l 1
133 414.875 m 1
 133 348.312 l 1
 199.562 348.312 l 1
 199.562 414.875 l 1
 133 414.875 l 1
133 288.312 m 1
 133 230.188 l 1
 199.562 230.188 l 1
 199.562 288.312 l 1
 133 288.312 l 1
259.562 288.312 m 1
 259.562 230.188 l 1
 326.125 230.188 l 1
 326.125 288.312 l 1
 259.562 288.312 l 1
133 170.188 m 1
 133 60 l 1
 199.562 60 l 1
 199.562 170.188 l 1
 133 170.188 l 1
EndSplineSet
Validated: 1
EndChar

StartChar: Igrave
Encoding: 204 204 86
Width: 327
GlyphClass: 2
Flags: MW
HStem: 0 21G<73 132.062 73 73 191.125 250.188 191.125 191.125> 0 21G<73 132.062 73 73 191.125 250.188 191.125 191.125> 510.562 59.0625
VStem: 73 59.0625 191.125 59.0625
LayerCount: 2
Fore
SplineSet
43.5049 818.737 m 1x38
 300.09 741.354 l 1
 282.188 681.994 l 1
 25.6035 759.378 l 1
 43.5049 818.737 l 1x38
73 591.625 m 1
 250.188 591.625 l 1
 250.188 0 l 1
 191.125 0 l 1
 191.125 532.562 l 1
 132.062 532.562 l 1
 132.062 0 l 1
 73 0 l 1xb8
 73 591.625 l 1
EndSplineSet
Validated: 1
EndChar

StartChar: Iacute
Encoding: 205 205 87
Width: 327
GlyphClass: 2
Flags: MW
HStem: 0 21G<72.999 132.061 72.999 72.999 191.124 250.188 191.124 191.124> 0 21G<72.999 132.061 72.999 72.999 191.124 250.188 191.124 191.124> 510.562 59.0625
VStem: 73 59.0625 191.125 59.0625
LayerCount: 2
Fore
SplineSet
27.0732 737.035 m 1x38
 281.319 821.783 l 1
 300.927 762.965 l 1
 46.6797 678.217 l 1
 27.0732 737.035 l 1x38
72.999 591.625 m 1
 250.188 591.625 l 1
 250.188 0 l 1
 191.124 0 l 1
 191.124 532.562 l 1
 132.061 532.562 l 1
 132.061 0 l 1
 72.999 0 l 1xb8
 72.999 591.625 l 1
EndSplineSet
Validated: 1
EndChar

StartChar: Icircumflex
Encoding: 206 206 88
Width: 327
GlyphClass: 2
Flags: MW
HStem: 0 21G<73 132.062 73 73 191.125 250.188 191.125 191.125> 0 21G<73 132.062 73 73 191.125 250.188 191.125 191.125> 532.562 59.063 726.266 62
VStem: 73 59.062 191.125 59.063
LayerCount: 2
Fore
SplineSet
29.2314 788.266 m 1x3c
 297.23 788.265 l 1
 297.231 726.265 l 1
 29.2324 726.266 l 1
 29.2314 788.266 l 1x3c
73 591.625 m 1
 250.188 591.625 l 1
 250.188 0 l 1
 191.125 0 l 1
 191.125 532.562 l 1
 132.062 532.562 l 1
 132.062 0 l 1
 73 0 l 1xbc
 73 591.625 l 1
EndSplineSet
Validated: 1
EndChar

StartChar: Idieresis
Encoding: 207 207 89
Width: 327
GlyphClass: 2
Flags: MW
HStem: 0 21G<73 132.062 73 73 191.125 250.188 191.125 191.125> 0 21G<73 132.062 73 73 191.125 250.188 191.125 191.125> 532.562 59.063 726.266 62
VStem: 73 59.062 191.125 59.063
LayerCount: 2
Fore
SplineSet
191.231 788.266 m 1x3c
 251.23 788.265 l 1
 251.231 726.265 l 1
 191.232 726.266 l 1
 191.231 788.266 l 1x3c
71.2314 788.266 m 1
 131.23 788.265 l 1
 131.231 726.265 l 1
 71.2324 726.266 l 1
 71.2314 788.266 l 1
73 591.625 m 1
 250.188 591.625 l 1
 250.188 0 l 1
 191.125 0 l 1
 191.125 532.562 l 1
 132.062 532.562 l 1
 132.062 0 l 1
 73 0 l 1xbc
 73 591.625 l 1
EndSplineSet
Validated: 1
EndChar

StartChar: Ntilde
Encoding: 209 209 90
Width: 742
GlyphClass: 2
Flags: MW
HStem: 0 60<133 191.125 133 251.125> 0.0625 21G<664.562 664.562> 573.438 20G 573.438 20G
VStem: 73 60<60 481.5 60 658.5> 191.125 60<60 327.188 0 405.562> 486.438 60 604.562 60
LayerCount: 2
Fore
SplineSet
73 658.5 m 1x8f
 486.438 118.5 l 1
 486.438 593.438 l 1
 546.438 593.438 l 1
 546.438 211.312 l 1
 604.562 145.188 l 1
 604.562 593.438 l 1
 664.562 593.438 l 1
 664.562 0.0625 l 1x6f
 546.438 126.562 l 1
 546.438 -58.5 l 1
 251.125 327.188 l 1
 251.125 0 l 1
 73 0 l 1
 73 658.5 l 1x8f
133 481.5 m 1
 133 60 l 1
 191.125 60 l 1x8f
 191.125 405.562 l 1
 133 481.5 l 1
EndSplineSet
Validated: 1
EndChar

StartChar: Ograve
Encoding: 210 210 91
Width: 718
GlyphClass: 2
Flags: MW
HStem: 0 60 413.438 60 540 60
VStem: 55 60 181.562 60 595 60
LayerCount: 2
Fore
SplineSet
218.073 737.035 m 1
 472.32 821.783 l 1
 491.928 762.965 l 1
 237.681 678.217 l 1
 218.073 737.035 l 1
355 600 m 0
 408.771 600 459.459 585.64 503.123 560.812 c 2
 537.437 541.312 l 1
 444.437 448.5 l 1
 464.177 436.611 481.257 420.873 494.874 402.375 c 1
 586.749 494.062 l 1
 606.999 462.751 l 2
 637.386 415.864 654.999 359.966 654.999 300.001 c 0
 654.999 134.667 520.333 0.000976562 354.999 0.000976562 c 0
 295.034 0.000976562 239.143 17.8076 192.25 48.1885 c 2
 160.938 68.4385 l 1
 252.812 160.312 l 1
 234.332 173.865 218.582 190.91 206.688 210.562 c 1
 113.688 117.751 l 1
 94.1875 152.062 l 2
 69.3613 195.738 55 246.234 55 300 c 0
 55 465.328 189.666 600 355 600 c 0
354.998 540.001 m 0
 222.09 540.001 114.998 432.904 114.998 300.002 c 0
 114.998 271.268 120.576 244.08 129.811 218.627 c 1
 183.811 272.814 l 1
 182.404 281.675 181.561 290.757 181.561 300.003 c 0
 181.561 395.429 259.561 473.44 354.998 473.44 c 0
 363.166 473.41 372.846 472.385 382.373 471.189 c 1
 436.373 525.376 l 1
 410.949 534.587 383.697 540.001 354.998 540.001 c 0
354.998 413.439 m 0
 291.986 413.439 241.56 363.002 241.56 300.002 c 0
 241.56 258.875 263.34 223.145 295.748 203.252 c 1
 451.748 359.063 l 1
 431.873 391.561 396.184 413.439 354.998 413.439 c 0
574.372 396.752 m 1
 258.247 80.8135 l 1
 287.89 67.6592 320.374 60.001 354.997 60.001 c 0
 487.911 60.001 594.997 167.093 594.997 300.001 c 0
 594.997 334.53 587.456 367.18 574.372 396.752 c 1
EndSplineSet
Validated: 1
EndChar

StartChar: Oacute
Encoding: 211 211 92
Width: 718
GlyphClass: 2
Flags: MW
HStem: 0 60 413.438 60 540 60
VStem: 55 60 181.562 60 595 60
LayerCount: 2
Fore
SplineSet
258.505 818.737 m 1
 515.09 741.354 l 1
 497.188 681.994 l 1
 240.604 759.378 l 1
 258.505 818.737 l 1
355 600 m 0
 408.771 600 459.459 585.64 503.123 560.812 c 2
 537.437 541.312 l 1
 444.437 448.5 l 1
 464.177 436.611 481.257 420.873 494.874 402.375 c 1
 586.749 494.062 l 1
 606.999 462.751 l 2
 637.386 415.864 654.999 359.966 654.999 300.001 c 0
 654.999 134.667 520.333 0.000976562 354.999 0.000976562 c 0
 295.034 0.000976562 239.143 17.8076 192.25 48.1885 c 2
 160.938 68.4385 l 1
 252.812 160.312 l 1
 234.332 173.865 218.582 190.91 206.688 210.562 c 1
 113.688 117.751 l 1
 94.1875 152.062 l 2
 69.3613 195.738 55 246.234 55 300 c 0
 55 465.328 189.666 600 355 600 c 0
354.998 540.001 m 0
 222.09 540.001 114.998 432.904 114.998 300.002 c 0
 114.998 271.268 120.576 244.08 129.811 218.627 c 1
 183.811 272.814 l 1
 182.404 281.675 181.561 290.757 181.561 300.003 c 0
 181.561 395.429 259.561 473.44 354.998 473.44 c 0
 363.166 473.41 372.846 472.385 382.373 471.189 c 1
 436.373 525.376 l 1
 410.949 534.587 383.697 540.001 354.998 540.001 c 0
354.998 413.439 m 0
 291.986 413.439 241.56 363.002 241.56 300.002 c 0
 241.56 258.875 263.34 223.145 295.748 203.252 c 1
 451.748 359.063 l 1
 431.873 391.561 396.184 413.439 354.998 413.439 c 0
574.372 396.752 m 1
 258.247 80.8135 l 1
 287.89 67.6592 320.374 60.001 354.997 60.001 c 0
 487.911 60.001 594.997 167.093 594.997 300.001 c 0
 594.997 334.53 587.456 367.18 574.372 396.752 c 1
EndSplineSet
Validated: 1
EndChar

StartChar: Ocircumflex
Encoding: 212 212 93
Width: 718
GlyphClass: 2
Flags: MW
HStem: 0 60 413.438 60 540 60 726.266 62
VStem: 55 60 181.562 60 595 60
LayerCount: 2
Fore
SplineSet
218.231 788.266 m 1
 486.23 788.265 l 1
 486.231 726.265 l 1
 218.232 726.266 l 1
 218.231 788.266 l 1
355 600 m 0
 408.771 600 459.459 585.64 503.123 560.812 c 2
 537.437 541.312 l 1
 444.437 448.5 l 1
 464.177 436.611 481.257 420.873 494.874 402.375 c 1
 586.749 494.062 l 1
 606.999 462.751 l 2
 637.386 415.864 654.999 359.966 654.999 300.001 c 0
 654.999 134.667 520.333 0.000976562 354.999 0.000976562 c 0
 295.034 0.000976562 239.143 17.8076 192.25 48.1885 c 2
 160.938 68.4385 l 1
 252.812 160.312 l 1
 234.332 173.865 218.582 190.91 206.688 210.562 c 1
 113.688 117.751 l 1
 94.1875 152.062 l 2
 69.3613 195.738 55 246.234 55 300 c 0
 55 465.328 189.666 600 355 600 c 0
354.998 540.001 m 0
 222.09 540.001 114.998 432.904 114.998 300.002 c 0
 114.998 271.268 120.576 244.08 129.811 218.627 c 1
 183.811 272.814 l 1
 182.404 281.675 181.561 290.757 181.561 300.003 c 0
 181.561 395.429 259.561 473.44 354.998 473.44 c 0
 363.166 473.41 372.846 472.385 382.373 471.189 c 1
 436.373 525.376 l 1
 410.949 534.587 383.697 540.001 354.998 540.001 c 0
354.998 413.439 m 0
 291.986 413.439 241.56 363.002 241.56 300.002 c 0
 241.56 258.875 263.34 223.145 295.748 203.252 c 1
 451.748 359.063 l 1
 431.873 391.561 396.184 413.439 354.998 413.439 c 0
574.372 396.752 m 1
 258.247 80.8135 l 1
 287.89 67.6592 320.374 60.001 354.997 60.001 c 0
 487.911 60.001 594.997 167.093 594.997 300.001 c 0
 594.997 334.53 587.456 367.18 574.372 396.752 c 1
EndSplineSet
Validated: 1
EndChar

StartChar: Otilde
Encoding: 213 213 94
Width: 718
GlyphClass: 2
Flags: MW
HStem: 0 60 413.438 60 540 60
VStem: 55 60 181.562 60 595 60
LayerCount: 2
Fore
SplineSet
355 600 m 0
 408.771 600 459.459 585.64 503.123 560.812 c 2
 537.437 541.312 l 1
 444.437 448.5 l 1
 464.177 436.611 481.257 420.873 494.874 402.375 c 1
 586.749 494.062 l 1
 606.999 462.751 l 2
 637.386 415.864 654.999 359.966 654.999 300.001 c 0
 654.999 134.667 520.333 0.000976562 354.999 0.000976562 c 0
 295.034 0.000976562 239.143 17.8076 192.25 48.1885 c 2
 160.938 68.4385 l 1
 252.812 160.312 l 1
 234.332 173.865 218.582 190.91 206.688 210.562 c 1
 113.688 117.751 l 1
 94.1875 152.062 l 2
 69.3613 195.738 55 246.234 55 300 c 0
 55 465.328 189.666 600 355 600 c 0
354.998 540.001 m 0
 222.09 540.001 114.998 432.904 114.998 300.002 c 0
 114.998 271.268 120.576 244.08 129.811 218.627 c 1
 183.811 272.814 l 1
 182.404 281.675 181.561 290.757 181.561 300.003 c 0
 181.561 395.429 259.561 473.44 354.998 473.44 c 0
 363.166 473.41 372.846 472.385 382.373 471.189 c 1
 436.373 525.376 l 1
 410.949 534.587 383.697 540.001 354.998 540.001 c 0
354.998 413.439 m 0
 291.986 413.439 241.56 363.002 241.56 300.002 c 0
 241.56 258.875 263.34 223.145 295.748 203.252 c 1
 451.748 359.063 l 1
 431.873 391.561 396.184 413.439 354.998 413.439 c 0
574.372 396.752 m 1
 258.247 80.8135 l 1
 287.89 67.6592 320.374 60.001 354.997 60.001 c 0
 487.911 60.001 594.997 167.093 594.997 300.001 c 0
 594.997 334.53 587.456 367.18 574.372 396.752 c 1
EndSplineSet
Validated: 1
EndChar

StartChar: Odieresis
Encoding: 214 214 95
Width: 718
GlyphClass: 2
Flags: MW
HStem: 0 60 413.438 60 540 60 726.266 62
VStem: 55 60 181.562 60 262.232 59.999 388.232 59.999 595 60
LayerCount: 2
Fore
SplineSet
388.231 788.266 m 1
 448.23 788.265 l 1
 448.231 726.265 l 1
 388.232 726.266 l 1
 388.231 788.266 l 1
262.231 788.266 m 1
 322.23 788.265 l 1
 322.231 726.265 l 1
 262.232 726.266 l 1
 262.231 788.266 l 1
355 600 m 0
 408.771 600 459.459 585.64 503.123 560.812 c 2
 537.437 541.312 l 1
 444.437 448.5 l 1
 464.177 436.611 481.257 420.873 494.874 402.375 c 1
 586.749 494.062 l 1
 606.999 462.751 l 2
 637.386 415.864 654.999 359.966 654.999 300.001 c 0
 654.999 134.667 520.333 0.000976562 354.999 0.000976562 c 0
 295.034 0.000976562 239.143 17.8076 192.25 48.1885 c 2
 160.938 68.4385 l 1
 252.812 160.312 l 1
 234.332 173.865 218.582 190.91 206.688 210.562 c 1
 113.688 117.751 l 1
 94.1875 152.062 l 2
 69.3613 195.738 55 246.234 55 300 c 0
 55 465.328 189.666 600 355 600 c 0
354.998 540.001 m 0
 222.09 540.001 114.998 432.904 114.998 300.002 c 0
 114.998 271.268 120.576 244.08 129.811 218.627 c 1
 183.811 272.814 l 1
 182.404 281.675 181.561 290.757 181.561 300.003 c 0
 181.561 395.429 259.561 473.44 354.998 473.44 c 0
 363.166 473.41 372.846 472.385 382.373 471.189 c 1
 436.373 525.376 l 1
 410.949 534.587 383.697 540.001 354.998 540.001 c 0
354.998 413.439 m 0
 291.986 413.439 241.56 363.002 241.56 300.002 c 0
 241.56 258.875 263.34 223.145 295.748 203.252 c 1
 451.748 359.063 l 1
 431.873 391.561 396.184 413.439 354.998 413.439 c 0
574.372 396.752 m 1
 258.247 80.8135 l 1
 287.89 67.6592 320.374 60.001 354.997 60.001 c 0
 487.911 60.001 594.997 167.093 594.997 300.001 c 0
 594.997 334.53 587.456 367.18 574.372 396.752 c 1
EndSplineSet
Validated: 1
EndChar

StartChar: Ugrave
Encoding: 217 217 96
Width: 738
GlyphClass: 2
Flags: MW
HStem: -10 60<331.425 381.379 331.425 411.05> 533 60<125.998 125.998 125.998 175.687>
VStem: 66 60 175.688 60 479.438 60 606 60<290 591>
LayerCount: 2
Fore
SplineSet
220.073 737.035 m 1
 474.32 821.783 l 1
 493.928 762.965 l 1
 239.681 678.217 l 1
 220.073 737.035 l 1
66 593 m 1
 235.687 593 l 1
 235.687 375.938 l 2
 235.687 286.153 284.882 198.26 357.561 157.062 c 1
 430.24 198.26 479.437 286.137 479.437 375.938 c 2
 479.437 591 l 1
 539.437 591 l 1
 539.437 375.938 l 2
 539.437 280.997 495.093 186.188 425.999 131.188 c 1
 442.03 127.807 458.602 125.938 475.688 125.938 c 0
 502.354 125.938 527.918 130.313 551.812 138.312 c 1
 585.68 179.686 606 232.25 606 290 c 2
 606 591 l 1
 666 591 l 1
 666 290 l 2
 666 214.742 638.027 145.783 592.125 93.125 c 0
 537.17 30.0723 456.1 -10 366 -10 c 0
 279.955 -10 202.049 26.4805 147.375 84.6875 c 0
 96.9844 138.312 66 210.711 66 290 c 2
 66 593 l 1
125.998 533 m 1
 125.998 290 l 2
 125.998 226.291 150.672 168.916 191.06 125.938 c 0
 234.877 79.291 296.852 50 365.998 50 c 0
 396.76 50 425.494 56.7559 452.437 67.25 c 1
 414.033 70.2207 377.465 80.0117 344.436 96.125 c 0
 244.498 144.828 175.687 257.59 175.687 375.938 c 2
 175.687 533 l 1
 125.998 533 l 1
EndSplineSet
Validated: 1
EndChar

StartChar: Uacute
Encoding: 218 218 97
Width: 738
GlyphClass: 2
Flags: MW
HStem: -10 60<331.425 381.379 331.425 411.05> 533 60<125.998 125.998 125.998 175.687>
VStem: 66 60 175.688 60 479.438 60 606 60<290 591>
LayerCount: 2
Fore
SplineSet
238.505 818.737 m 1
 495.09 741.354 l 1
 477.188 681.994 l 1
 220.604 759.378 l 1
 238.505 818.737 l 1
66 593 m 1
 235.687 593 l 1
 235.687 375.938 l 2
 235.687 286.153 284.882 198.26 357.561 157.062 c 1
 430.24 198.26 479.437 286.137 479.437 375.938 c 2
 479.437 591 l 1
 539.437 591 l 1
 539.437 375.938 l 2
 539.437 280.997 495.093 186.188 425.999 131.188 c 1
 442.03 127.807 458.602 125.938 475.688 125.938 c 0
 502.354 125.938 527.918 130.313 551.812 138.312 c 1
 585.68 179.686 606 232.25 606 290 c 2
 606 591 l 1
 666 591 l 1
 666 290 l 2
 666 214.742 638.027 145.783 592.125 93.125 c 0
 537.17 30.0723 456.1 -10 366 -10 c 0
 279.955 -10 202.049 26.4805 147.375 84.6875 c 0
 96.9844 138.312 66 210.711 66 290 c 2
 66 593 l 1
125.998 533 m 1
 125.998 290 l 2
 125.998 226.291 150.672 168.916 191.06 125.938 c 0
 234.877 79.291 296.852 50 365.998 50 c 0
 396.76 50 425.494 56.7559 452.437 67.25 c 1
 414.033 70.2207 377.465 80.0117 344.436 96.125 c 0
 244.498 144.828 175.687 257.59 175.687 375.938 c 2
 175.687 533 l 1
 125.998 533 l 1
EndSplineSet
Validated: 1
EndChar

StartChar: Ucircumflex
Encoding: 219 219 98
Width: 738
GlyphClass: 2
Flags: MW
HStem: -10 60<331.425 381.379 331.425 411.05> 533 60<125.998 125.998 125.998 175.687> 726.266 62
VStem: 66 60 175.688 60 479.438 60 606 60<290 591>
LayerCount: 2
Fore
SplineSet
222.231 788.266 m 1
 490.23 788.265 l 1
 490.231 726.265 l 1
 222.232 726.266 l 1
 222.231 788.266 l 1
66 593 m 1
 235.687 593 l 1
 235.687 375.938 l 2
 235.687 286.153 284.882 198.26 357.561 157.062 c 1
 430.24 198.26 479.437 286.137 479.437 375.938 c 2
 479.437 591 l 1
 539.437 591 l 1
 539.437 375.938 l 2
 539.437 280.997 495.093 186.188 425.999 131.188 c 1
 442.03 127.807 458.602 125.938 475.688 125.938 c 0
 502.354 125.938 527.918 130.313 551.812 138.312 c 1
 585.68 179.686 606 232.25 606 290 c 2
 606 591 l 1
 666 591 l 1
 666 290 l 2
 666 214.742 638.027 145.783 592.125 93.125 c 0
 537.17 30.0723 456.1 -10 366 -10 c 0
 279.955 -10 202.049 26.4805 147.375 84.6875 c 0
 96.9844 138.312 66 210.711 66 290 c 2
 66 593 l 1
125.998 533 m 1
 125.998 290 l 2
 125.998 226.291 150.672 168.916 191.06 125.938 c 0
 234.877 79.291 296.852 50 365.998 50 c 0
 396.76 50 425.494 56.7559 452.437 67.25 c 1
 414.033 70.2207 377.465 80.0117 344.436 96.125 c 0
 244.498 144.828 175.687 257.59 175.687 375.938 c 2
 175.687 533 l 1
 125.998 533 l 1
EndSplineSet
Validated: 1
EndChar

StartChar: Udieresis
Encoding: 220 220 99
Width: 738
GlyphClass: 2
Flags: MW
HStem: -10 60<331.425 381.379 331.425 411.05> 533 60<125.998 125.998 125.998 175.687> 726.266 62
VStem: 66 60 175.688 60 269.232 59.999 395.232 59.999 479.438 60 606 60<290 591>
LayerCount: 2
Fore
SplineSet
395.231 788.266 m 1
 455.23 788.265 l 1
 455.231 726.265 l 1
 395.232 726.266 l 1
 395.231 788.266 l 1
269.231 788.266 m 1
 329.23 788.265 l 1
 329.231 726.265 l 1
 269.232 726.266 l 1
 269.231 788.266 l 1
66 593 m 1
 235.687 593 l 1
 235.687 375.938 l 2
 235.687 286.153 284.882 198.26 357.561 157.062 c 1
 430.24 198.26 479.437 286.137 479.437 375.938 c 2
 479.437 591 l 1
 539.437 591 l 1
 539.437 375.938 l 2
 539.437 280.997 495.093 186.188 425.999 131.188 c 1
 442.03 127.807 458.602 125.938 475.688 125.938 c 0
 502.354 125.938 527.918 130.313 551.812 138.312 c 1
 585.68 179.686 606 232.25 606 290 c 2
 606 591 l 1
 666 591 l 1
 666 290 l 2
 666 214.742 638.027 145.783 592.125 93.125 c 0
 537.17 30.0723 456.1 -10 366 -10 c 0
 279.955 -10 202.049 26.4805 147.375 84.6875 c 0
 96.9844 138.312 66 210.711 66 290 c 2
 66 593 l 1
125.998 533 m 1
 125.998 290 l 2
 125.998 226.291 150.672 168.916 191.06 125.938 c 0
 234.877 79.291 296.852 50 365.998 50 c 0
 396.76 50 425.494 56.7559 452.437 67.25 c 1
 414.033 70.2207 377.465 80.0117 344.436 96.125 c 0
 244.498 144.828 175.687 257.59 175.687 375.938 c 2
 175.687 533 l 1
 125.998 533 l 1
EndSplineSet
Validated: 1
EndChar

StartChar: Yacute
Encoding: 221 221 100
Width: 801
GlyphClass: 2
Flags: MW
HStem: 0 21G<314.5 376.562 314.5 314.5 424.188 484.188 424.188 424.188> 0 21G<314.5 376.562 314.5 314.5 424.188 484.188 424.188 424.188> 571 20G<49 133.938 133.938 133.938 197.688 282.625 282.625 282.625 518.125 603.062 603.062 603.062 664.75 749.688 749.688 749.688> 571 20G<49 133.938 133.938 133.938 197.688 282.625 282.625 282.625 518.125 603.062 603.062 603.062 664.75 749.688 749.688 749.688>
VStem: 314.5 62.062 424.188 60
LayerCount: 2
Fore
SplineSet
253.073 737.035 m 1x0c
 507.32 821.783 l 1
 526.928 762.965 l 1
 272.681 678.217 l 1
 253.073 737.035 l 1x0c
49 591 m 1xac
 133.938 591 l 1
 374.5 350.25 l 1
 374.5 300.75 l 1
 664.75 591 l 1
 749.688 591 l 1
 484.188 325.688 l 1
 484.188 0 l 1
 424.188 0 l 1
 424.188 265.688 l 1
 376.562 218.062 l 1
 376.562 0 l 1
 314.5 0 l 1
 314.5 325.688 l 1
 49 591 l 1xac
197.688 591 m 1
 282.625 591 l 1
 400.375 473.25 l 1
 518.125 591 l 1
 603.062 591 l 1
 400.375 388.125 l 1
 197.688 591 l 1
EndSplineSet
Validated: 1
EndChar

StartChar: aacute
Encoding: 225 225 101
Width: 812
GlyphClass: 2
Flags: MW
HStem: 0.25 60<554.562 655.812 554.562 762.5 518.562 655.812> 636 20G<393.688 393.688>
LayerCount: 2
Fore
SplineSet
251.073 737.035 m 1
 505.32 821.783 l 1
 524.928 762.965 l 1
 270.681 678.217 l 1
 251.073 737.035 l 1
393.688 656 m 1
 762.5 0.25 l 1
 518.562 0.25 l 1
 393.688 240.688 l 1
 287 0 l 1
 217.625 0 l 1
 393.688 360.688 l 1
 554.562 60.25 l 1
 655.812 60.25 l 1
 393.688 536 l 1
 116.375 0 l 1
 47 0 l 1
 393.688 656 l 1
EndSplineSet
Validated: 1
EndChar

StartChar: acircumflex
Encoding: 226 226 102
Width: 812
GlyphClass: 2
Flags: MW
HStem: 0.25 60<554.562 655.812 554.562 762.5 518.562 655.812> 636 20G<393.688 393.688> 726.266 62
LayerCount: 2
Fore
SplineSet
254.231 788.266 m 1
 522.23 788.265 l 1
 522.231 726.265 l 1
 254.232 726.266 l 1
 254.231 788.266 l 1
393.688 656 m 1
 762.5 0.25 l 1
 518.562 0.25 l 1
 393.688 240.688 l 1
 287 0 l 1
 217.625 0 l 1
 393.688 360.688 l 1
 554.562 60.25 l 1
 655.812 60.25 l 1
 393.688 536 l 1
 116.375 0 l 1
 47 0 l 1
 393.688 656 l 1
EndSplineSet
Validated: 1
EndChar

StartChar: atilde
Encoding: 227 227 103
Width: 812
GlyphClass: 2
Flags: MW
HStem: 0.25 60<554.562 655.812 554.562 762.5 518.562 655.812> 636 20G<393.688 393.688>
LayerCount: 2
Fore
SplineSet
393.688 656 m 1
 762.5 0.25 l 1
 518.562 0.25 l 1
 393.688 240.688 l 1
 287 0 l 1
 217.625 0 l 1
 393.688 360.688 l 1
 554.562 60.25 l 1
 655.812 60.25 l 1
 393.688 536 l 1
 116.375 0 l 1
 47 0 l 1
 393.688 656 l 1
EndSplineSet
Validated: 1
EndChar

StartChar: adieresis
Encoding: 228 228 104
Width: 812
GlyphClass: 2
Flags: MW
HStem: 0.25 60<554.562 655.812 554.562 762.5 518.562 655.812> 636 20G<393.688 393.688>
LayerCount: 2
Fore
SplineSet
424.231 788.266 m 1
 493.23 788.265 l 1
 493.231 726.265 l 1
 424.232 726.266 l 1
 424.231 788.266 l 1
286.231 788.266 m 1
 355.23 788.265 l 1
 355.231 726.265 l 1
 286.232 726.266 l 1
 286.231 788.266 l 1
393.688 656 m 1
 762.5 0.25 l 1
 518.562 0.25 l 1
 393.688 240.688 l 1
 287 0 l 1
 217.625 0 l 1
 393.688 360.688 l 1
 554.562 60.25 l 1
 655.812 60.25 l 1
 393.688 536 l 1
 116.375 0 l 1
 47 0 l 1
 393.688 656 l 1
EndSplineSet
Validated: 1
EndChar

StartChar: aring
Encoding: 229 229 105
Width: 812
GlyphClass: 2
Flags: MW
HStem: 0.25 60<554.562 655.812 554.562 762.5 518.562 655.812> 636 20G<393.688 393.688>
LayerCount: 2
Fore
SplineSet
393.688 656 m 1
 762.5 0.25 l 1
 518.562 0.25 l 1
 393.688 240.688 l 1
 287 0 l 1
 217.625 0 l 1
 393.688 360.688 l 1
 554.562 60.25 l 1
 655.812 60.25 l 1
 393.688 536 l 1
 116.375 0 l 1
 47 0 l 1
 393.688 656 l 1
EndSplineSet
Validated: 1
EndChar

StartChar: ae
Encoding: 230 230 106
Width: 1261
GlyphClass: 2
Flags: MW
HStem: 0 60<790.014 856.575 916.576 1172.08 763.96 856.575> 170.188 60 288.312 60 414.875 60<589.242 589.242 589.242 621.858 555.297 655.806 715.805 937.358 715.805 715.805> 533 60<522.411 522.411 522.411 588.975 648.975 870.528 428.468 904.475 648.975 648.975> 636 20G<393.687 393.687>
LayerCount: 2
Fore
SplineSet
428.468 593 m 1
 870.528 593 l 1
 904.475 533 l 1
 648.975 533 l 1
 681.858 474.875 l 1
 937.358 474.875 l 1
 971.305 414.875 l 1
 715.805 414.875 l 1
 753.463 348.312 l 1
 879.025 348.312 l 1
 979.801 170.188 l 1
 854.237 170.188 l 1
 916.576 60 l 1
 1172.08 60 l 1
 1206.02 0 l 1
 763.96 0 l 1
 428.468 593 l 1
522.411 533 m 1
 555.297 474.875 l 1
 621.858 474.875 l 1
 588.975 533 l 1
 522.411 533 l 1
589.242 414.875 m 1
 626.9 348.312 l 1
 693.464 348.312 l 1
 655.806 414.875 l 1
 589.242 414.875 l 1
660.847 288.312 m 1
 693.729 230.188 l 1
 760.292 230.188 l 1
 727.408 288.312 l 1
 660.847 288.312 l 1
787.407 288.312 m 1
 820.292 230.188 l 1
 886.854 230.188 l 1
 853.971 288.312 l 1
 787.407 288.312 l 1
727.675 170.188 m 1
 790.014 60 l 1
 856.575 60 l 1
 794.236 170.188 l 1
 727.675 170.188 l 1
393.687 656 m 1
 762.498 0.25 l 1
 518.56 0.25 l 1
 393.686 240.688 l 1
 286.998 0 l 1
 217.623 0 l 1
 393.686 360.688 l 1
 554.56 60.25 l 1
 655.81 60.25 l 1
 393.686 536 l 1
 116.373 0 l 1
 46.998 0 l 1
 393.687 656 l 1
EndSplineSet
Validated: 5
EndChar

StartChar: egrave
Encoding: 232 232 107
Width: 531
GlyphClass: 2
Flags: MW
HStem: 583.516 20G
VStem: 401.969 60
LayerCount: 2
Fore
SplineSet
150.505 818.737 m 1
 407.09 741.354 l 1
 389.188 681.994 l 1
 132.604 759.378 l 1
 150.505 818.737 l 1
416.969 -11 m 1
 49 201.345 l 1
 203.923 301.642 l 1
 49 391.173 l 1
 94 417.188 l 1
 416.969 603.517 l 1
 446.969 551.484 l 1
 169 391.172 l 1
 263.923 336.328 l 1
 461.969 450.703 l 1
 461.969 141.812 l 1
 263.923 255.953 l 1
 169 201.344 l 1
 446.969 40.7969 l 1
 416.969 -11 l 1
401.969 245.642 m 1
 401.969 346.642 l 1
 323.923 301.642 l 1
 401.969 245.642 l 1
EndSplineSet
Validated: 524289
EndChar

StartChar: eacute
Encoding: 233 233 108
Width: 531
GlyphClass: 2
Flags: HMW
HStem: 583.516 20G
VStem: 401.969 60
LayerCount: 2
Fore
SplineSet
403.363 741.189 m 5
 137.908 692.042 l 5
 128.538 752.991 l 5
 391.992 802.138 l 5
 403.363 741.189 l 5
416.969 -11 m 1
 49 201.345 l 1
 203.923 301.642 l 1
 49 391.173 l 1
 94 417.188 l 1
 416.969 603.517 l 1
 446.969 551.484 l 1
 169 391.172 l 1
 263.923 336.328 l 1
 461.969 450.703 l 1
 461.969 141.812 l 1
 263.923 255.953 l 1
 169 201.344 l 1
 446.969 40.7969 l 1
 416.969 -11 l 1
401.969 245.642 m 1
 401.969 346.642 l 1
 323.923 301.642 l 1
 401.969 245.642 l 1
EndSplineSet
Validated: 524289
EndChar

StartChar: ecircumflex
Encoding: 234 234 109
Width: 531
GlyphClass: 2
Flags: MW
HStem: 583.516 20G 726.266 62
VStem: 401.969 60
LayerCount: 2
Fore
SplineSet
133.231 788.266 m 1
 401.23 788.265 l 1
 401.231 726.265 l 1
 133.232 726.266 l 1
 133.231 788.266 l 1
416.97 -11 m 1
 49.001 201.345 l 1
 203.924 301.642 l 1
 49.001 391.173 l 1
 94.001 417.188 l 1
 416.97 603.517 l 1
 446.97 551.484 l 1
 169.001 391.172 l 1
 263.924 336.328 l 1
 461.97 450.703 l 1
 461.97 141.812 l 1
 263.924 255.953 l 1
 169.001 201.344 l 1
 446.97 40.7969 l 1
 416.97 -11 l 1
401.97 245.642 m 1
 401.97 346.642 l 1
 323.924 301.642 l 1
 401.97 245.642 l 1
EndSplineSet
Validated: 1
EndChar

StartChar: edieresis
Encoding: 235 235 110
Width: 531
GlyphClass: 2
Flags: MW
HStem: 583.516 20G 726.266 62
VStem: 193.232 68.999 331.232 68.999 401.969 60
LayerCount: 2
Fore
SplineSet
331.231 788.266 m 1
 400.23 788.265 l 1
 400.231 726.265 l 1
 331.232 726.266 l 1
 331.231 788.266 l 1
193.231 788.266 m 1
 262.23 788.265 l 1
 262.231 726.265 l 1
 193.232 726.266 l 1
 193.231 788.266 l 1
416.97 -11 m 1
 49.001 201.345 l 1
 203.924 301.642 l 1
 49.001 391.173 l 1
 94.001 417.188 l 1
 416.97 603.517 l 1
 446.97 551.484 l 1
 169.001 391.172 l 1
 263.924 336.328 l 1
 461.97 450.703 l 1
 461.97 141.812 l 1
 263.924 255.953 l 1
 169.001 201.344 l 1
 446.97 40.7969 l 1
 416.97 -11 l 1
401.97 245.642 m 1
 401.97 346.642 l 1
 323.924 301.642 l 1
 401.97 245.642 l 1
EndSplineSet
Validated: 1
EndChar

StartChar: igrave
Encoding: 236 236 111
Width: 327
GlyphClass: 2
Flags: MW
HStem: 0 21G<73 132.062 73 73 191.125 250.188 191.125 191.125> 0 21G<73 132.062 73 73 191.125 250.188 191.125 191.125> 510.562 59.0625
VStem: 73 59.0625 191.125 59.0625
LayerCount: 2
Fore
SplineSet
43.5049 818.737 m 1x38
 300.09 741.354 l 1
 282.188 681.994 l 1
 25.6035 759.378 l 1
 43.5049 818.737 l 1x38
73 591.625 m 1
 250.188 591.625 l 1
 250.188 0 l 1
 191.125 0 l 1
 191.125 532.562 l 1
 132.062 532.562 l 1
 132.062 0 l 1
 73 0 l 1xb8
 73 591.625 l 1
EndSplineSet
Validated: 1
EndChar

StartChar: iacute
Encoding: 237 237 112
Width: 327
GlyphClass: 2
Flags: MW
HStem: 0 21G<72.999 132.061 72.999 72.999 191.124 250.188 191.124 191.124> 0 21G<72.999 132.061 72.999 72.999 191.124 250.188 191.124 191.124> 510.562 59.0625
VStem: 73 59.0625 191.125 59.0625
LayerCount: 2
Fore
SplineSet
27.0732 737.035 m 1x38
 281.319 821.783 l 1
 300.927 762.965 l 1
 46.6797 678.217 l 1
 27.0732 737.035 l 1x38
72.999 591.625 m 1
 250.188 591.625 l 1
 250.188 0 l 1
 191.124 0 l 1
 191.124 532.562 l 1
 132.061 532.562 l 1
 132.061 0 l 1
 72.999 0 l 1xb8
 72.999 591.625 l 1
EndSplineSet
Validated: 1
EndChar

StartChar: icircumflex
Encoding: 238 238 113
Width: 327
GlyphClass: 2
Flags: MW
HStem: 0 21G<73 132.062 73 73 191.125 250.188 191.125 191.125> 0 21G<73 132.062 73 73 191.125 250.188 191.125 191.125> 532.562 59.0625
VStem: 73 59.0626 191.125 59.063
LayerCount: 2
Fore
SplineSet
29.2314 788.266 m 1x38
 297.23 788.265 l 1
 297.231 726.265 l 1
 29.2324 726.266 l 1
 29.2314 788.266 l 1x38
73 591.625 m 1
 250.188 591.625 l 1
 250.188 0 l 1
 191.125 0 l 1
 191.125 532.562 l 1
 132.062 532.562 l 1
 132.062 0 l 1
 73 0 l 1xb8
 73 591.625 l 1
EndSplineSet
Validated: 1
EndChar

StartChar: idieresis
Encoding: 239 239 114
Width: 327
GlyphClass: 2
Flags: MW
HStem: 0 21G<73 132.062 73 73 191.125 250.188 191.125 191.125> 0 21G<73 132.062 73 73 191.125 250.188 191.125 191.125> 532.562 59.0625
VStem: 73 59.0626 191.125 59.063
LayerCount: 2
Fore
SplineSet
191.231 788.266 m 5x38
 251.23 788.265 l 5
 251.231 726.265 l 5
 191.232 726.266 l 5
 191.231 788.266 l 5x38
71.2314 788.266 m 5
 131.23 788.265 l 5
 131.231 726.265 l 5
 71.2324 726.266 l 5
 71.2314 788.266 l 5
73 591.625 m 1
 250.188 591.625 l 1
 250.188 0 l 1
 191.125 0 l 1
 191.125 532.562 l 1
 132.062 532.562 l 1
 132.062 0 l 1
 73 0 l 1xb8
 73 591.625 l 1
EndSplineSet
Validated: 1
EndChar

StartChar: ntilde
Encoding: 241 241 115
Width: 742
GlyphClass: 2
Flags: MW
HStem: 0 60<133 191.125 133 251.125> 0.0625 21G<664.562 664.562> 573.438 20G 573.438 20G
VStem: 73 60<60 481.5 60 658.5> 191.125 60<60 327.188 0 405.562> 486.438 60 604.562 60
LayerCount: 2
Fore
SplineSet
73 658.5 m 1x8f
 486.438 118.5 l 1
 486.438 593.438 l 1
 546.438 593.438 l 1
 546.438 211.312 l 1
 604.562 145.188 l 1
 604.562 593.438 l 1
 664.562 593.438 l 1
 664.562 0.0625 l 1x6f
 546.438 126.562 l 1
 546.438 -58.5 l 1
 251.125 327.188 l 1
 251.125 0 l 1
 73 0 l 1
 73 658.5 l 1x8f
133 481.5 m 1
 133 60 l 1
 191.125 60 l 1x8f
 191.125 405.562 l 1
 133 481.5 l 1
EndSplineSet
Validated: 1
EndChar

StartChar: ograve
Encoding: 242 242 116
Width: 718
GlyphClass: 2
Flags: MW
HStem: 0 60 413.438 60 540 60
VStem: 55 60 181.562 60 595 60
LayerCount: 2
Fore
SplineSet
258.505 818.737 m 1
 515.09 741.354 l 1
 497.188 681.994 l 1
 240.604 759.378 l 1
 258.505 818.737 l 1
355 600 m 0
 408.771 600 459.459 585.64 503.123 560.812 c 2
 537.437 541.312 l 1
 444.437 448.5 l 1
 464.177 436.611 481.257 420.873 494.874 402.375 c 1
 586.749 494.062 l 1
 606.999 462.751 l 2
 637.386 415.864 654.999 359.966 654.999 300.001 c 0
 654.999 134.667 520.333 0.000976562 354.999 0.000976562 c 0
 295.034 0.000976562 239.143 17.8076 192.25 48.1885 c 2
 160.938 68.4385 l 1
 252.812 160.312 l 1
 234.332 173.865 218.582 190.91 206.688 210.562 c 1
 113.688 117.751 l 1
 94.1875 152.062 l 2
 69.3613 195.738 55 246.234 55 300 c 0
 55 465.328 189.666 600 355 600 c 0
354.998 540.001 m 0
 222.09 540.001 114.998 432.904 114.998 300.002 c 0
 114.998 271.268 120.576 244.08 129.811 218.627 c 1
 183.811 272.814 l 1
 182.404 281.675 181.561 290.757 181.561 300.003 c 0
 181.561 395.429 259.561 473.44 354.998 473.44 c 0
 363.166 473.41 372.846 472.385 382.373 471.189 c 1
 436.373 525.376 l 1
 410.949 534.587 383.697 540.001 354.998 540.001 c 0
354.998 413.439 m 0
 291.986 413.439 241.56 363.002 241.56 300.002 c 0
 241.56 258.875 263.34 223.145 295.748 203.252 c 1
 451.748 359.063 l 1
 431.873 391.561 396.184 413.439 354.998 413.439 c 0
574.372 396.752 m 1
 258.247 80.8135 l 1
 287.89 67.6592 320.374 60.001 354.997 60.001 c 0
 487.911 60.001 594.997 167.093 594.997 300.001 c 0
 594.997 334.53 587.456 367.18 574.372 396.752 c 1
EndSplineSet
Validated: 1
EndChar

StartChar: oacute
Encoding: 243 243 117
Width: 718
GlyphClass: 2
Flags: MW
HStem: 0 60 413.438 60 540 60
VStem: 55 60 181.562 60 595 60
LayerCount: 2
Fore
SplineSet
218.073 737.035 m 1
 472.32 821.783 l 1
 491.928 762.965 l 1
 237.681 678.217 l 1
 218.073 737.035 l 1
355 600 m 0
 408.771 600 459.459 585.64 503.123 560.812 c 2
 537.437 541.312 l 1
 444.437 448.5 l 1
 464.177 436.611 481.257 420.873 494.874 402.375 c 1
 586.749 494.062 l 1
 606.999 462.751 l 2
 637.386 415.864 654.999 359.966 654.999 300.001 c 0
 654.999 134.667 520.333 0.000976562 354.999 0.000976562 c 0
 295.034 0.000976562 239.143 17.8076 192.25 48.1885 c 2
 160.938 68.4385 l 1
 252.812 160.312 l 1
 234.332 173.865 218.582 190.91 206.688 210.562 c 1
 113.688 117.751 l 1
 94.1875 152.062 l 2
 69.3613 195.738 55 246.234 55 300 c 0
 55 465.328 189.666 600 355 600 c 0
354.998 540.001 m 0
 222.09 540.001 114.998 432.904 114.998 300.002 c 0
 114.998 271.268 120.576 244.08 129.811 218.627 c 1
 183.811 272.814 l 1
 182.404 281.675 181.561 290.757 181.561 300.003 c 0
 181.561 395.429 259.561 473.44 354.998 473.44 c 0
 363.166 473.41 372.846 472.385 382.373 471.189 c 1
 436.373 525.376 l 1
 410.949 534.587 383.697 540.001 354.998 540.001 c 0
354.998 413.439 m 0
 291.986 413.439 241.56 363.002 241.56 300.002 c 0
 241.56 258.875 263.34 223.145 295.748 203.252 c 1
 451.748 359.063 l 1
 431.873 391.561 396.184 413.439 354.998 413.439 c 0
574.372 396.752 m 1
 258.247 80.8135 l 1
 287.89 67.6592 320.374 60.001 354.997 60.001 c 0
 487.911 60.001 594.997 167.093 594.997 300.001 c 0
 594.997 334.53 587.456 367.18 574.372 396.752 c 1
EndSplineSet
Validated: 1
EndChar

StartChar: ocircumflex
Encoding: 244 244 118
Width: 718
GlyphClass: 2
Flags: MW
HStem: 0 60 413.438 60 540 60
VStem: 55 60 181.562 60 595 60
LayerCount: 2
Fore
SplineSet
218.231 788.266 m 5
 486.23 788.265 l 5
 486.231 726.265 l 5
 218.232 726.266 l 5
 218.231 788.266 l 5
355 600 m 0
 408.771 600 459.459 585.64 503.123 560.812 c 2
 537.437 541.312 l 1
 444.437 448.5 l 1
 464.177 436.611 481.257 420.873 494.874 402.375 c 1
 586.749 494.062 l 1
 606.999 462.751 l 2
 637.386 415.864 654.999 359.966 654.999 300.001 c 0
 654.999 134.667 520.333 0.000976562 354.999 0.000976562 c 0
 295.034 0.000976562 239.143 17.8076 192.25 48.1885 c 2
 160.938 68.4385 l 1
 252.812 160.312 l 1
 234.332 173.865 218.582 190.91 206.688 210.562 c 1
 113.688 117.751 l 1
 94.1875 152.062 l 2
 69.3613 195.738 55 246.234 55 300 c 0
 55 465.328 189.666 600 355 600 c 0
354.998 540.001 m 0
 222.09 540.001 114.998 432.904 114.998 300.002 c 0
 114.998 271.268 120.576 244.08 129.811 218.627 c 1
 183.811 272.814 l 1
 182.404 281.675 181.561 290.757 181.561 300.003 c 0
 181.561 395.429 259.561 473.44 354.998 473.44 c 0
 363.166 473.41 372.846 472.385 382.373 471.189 c 1
 436.373 525.376 l 1
 410.949 534.587 383.697 540.001 354.998 540.001 c 0
354.998 413.439 m 0
 291.986 413.439 241.56 363.002 241.56 300.002 c 0
 241.56 258.875 263.34 223.145 295.748 203.252 c 1
 451.748 359.063 l 1
 431.873 391.561 396.184 413.439 354.998 413.439 c 0
574.372 396.752 m 1
 258.247 80.8135 l 1
 287.89 67.6592 320.374 60.001 354.997 60.001 c 0
 487.911 60.001 594.997 167.093 594.997 300.001 c 0
 594.997 334.53 587.456 367.18 574.372 396.752 c 1
EndSplineSet
Validated: 1
EndChar

StartChar: odieresis
Encoding: 246 246 119
Width: 718
GlyphClass: 2
Flags: MW
HStem: 0 60 413.438 60 540 60
VStem: 55 60 181.562 60 595 60
LayerCount: 2
Fore
SplineSet
388.231 788.266 m 1
 448.23 788.265 l 1
 448.231 726.265 l 1
 388.232 726.266 l 1
 388.231 788.266 l 1
262.231 788.266 m 1
 322.23 788.265 l 1
 322.231 726.265 l 1
 262.232 726.266 l 1
 262.231 788.266 l 1
355 600 m 0
 408.771 600 459.459 585.64 503.123 560.812 c 2
 537.437 541.312 l 1
 444.437 448.5 l 1
 464.177 436.611 481.257 420.873 494.874 402.375 c 1
 586.749 494.062 l 1
 606.999 462.751 l 2
 637.386 415.864 654.999 359.966 654.999 300.001 c 0
 654.999 134.667 520.333 0.000976562 354.999 0.000976562 c 0
 295.034 0.000976562 239.143 17.8076 192.25 48.1885 c 2
 160.938 68.4385 l 1
 252.812 160.312 l 1
 234.332 173.865 218.582 190.91 206.688 210.562 c 1
 113.688 117.751 l 1
 94.1875 152.062 l 2
 69.3613 195.738 55 246.234 55 300 c 0
 55 465.328 189.666 600 355 600 c 0
354.998 540.001 m 0
 222.09 540.001 114.998 432.904 114.998 300.002 c 0
 114.998 271.268 120.576 244.08 129.811 218.627 c 1
 183.811 272.814 l 1
 182.404 281.675 181.561 290.757 181.561 300.003 c 0
 181.561 395.429 259.561 473.44 354.998 473.44 c 0
 363.166 473.41 372.846 472.385 382.373 471.189 c 1
 436.373 525.376 l 1
 410.949 534.587 383.697 540.001 354.998 540.001 c 0
354.998 413.439 m 0
 291.986 413.439 241.56 363.002 241.56 300.002 c 0
 241.56 258.875 263.34 223.145 295.748 203.252 c 1
 451.748 359.063 l 1
 431.873 391.561 396.184 413.439 354.998 413.439 c 0
574.372 396.752 m 1
 258.247 80.8135 l 1
 287.89 67.6592 320.374 60.001 354.997 60.001 c 0
 487.911 60.001 594.997 167.093 594.997 300.001 c 0
 594.997 334.53 587.456 367.18 574.372 396.752 c 1
EndSplineSet
Validated: 1
EndChar

StartChar: Dcroat
Encoding: 272 272 134
Width: 686
Flags: W
HStem: -0.1875 60<336.812 336.812> 102.375 60 421.875 61.125 532.688 60
VStem: 74.5 60 199.749 59.532 461.125 60 562.375 60<258.008 359.139>
LayerCount: 2
Fore
SplineSet
73 592.688 m 1
 322.375 592.688 l 2
 487.709 592.688 622.375 458.016 622.375 292.688 c 0
 622.375 215.725 599.729 136.289 554.688 76.3125 c 1
 428.875 76.3125 l 1
 431.447 84.416 433.968 93.0762 436.562 102.375 c 1
 259.281 102.375 l 1
 259.281 59.8125 l 1
 371.875 59.8125 l 1
 336.812 -0.1875 l 1
 74.5 0 l 1
 73 592.688 l 1
133 532.688 m 1
 134.499 59.998 l 1
 199.748 59.998 l 1
 198.625 482.998 l 1
 237.998 482.998 l 2
 316.708 482.998 386.593 467.236 438.624 427.498 c 0
 490.655 387.76 521.124 323.594 521.124 242.06 c 0
 521.124 207.59 512.892 161.582 502.374 117.187 c 0
 501.337 112.798 500.241 109.282 499.188 104.999 c 1
 539.295 153.907 562.375 223.329 562.375 292.688 c 0
 562.375 425.59 455.283 532.688 322.375 532.688 c 2
 133 532.688 l 1
259.28 421.873 m 1
 259.281 162.374 l 1
 450.812 162.374 l 1
 457.035 193.962 461.125 224.138 461.125 242.061 c 0
 461.125 309.648 439.686 351.238 402.438 379.687 c 0
 369.057 405.181 319.772 419.107 259.28 421.873 c 1
EndSplineSet
Validated: 1
EndChar

StartChar: uni0194
Encoding: 404 404 136
Width: 1746
VWidth: 0
Flags: W
HStem: -12 21G<393.217 416.039 705.404 728.226 1017.59 1040.41 1329.78 1352.6> 524.688 67.5<168.188 256.5>
LayerCount: 2
Fore
SplineSet
60 592.188 m 5
 286.688 592.188 l 5
 445.688 315.188 l 5
 404.625 260.812 l 5
 256.5 524.688 l 5
 168.188 524.688 l 5
 404.625 108 l 5
 680.25 592.188 l 5
 749.438 592.188 l 5
 404.625 -12 l 5
 60 592.188 l 5
834.938 592.188 m 5
 904.125 592.188 l 5
 716.812 260.812 l 5
 663.562 353.25 l 5
 703.125 404.812 l 5
 716.812 380.812 l 5
 834.938 592.188 l 5
992.438 592.188 m 5
 1061.62 592.188 l 5
 716.812 -12 l 5
 597.562 197.062 l 5
 631.312 256.125 l 5
 716.812 108 l 5
 917.062 461.688 l 5
 916.875 462.062 l 5
 951.562 522.25 l 5
 951.75 521.875 l 5
 992.438 592.188 l 5
1147.12 592.188 m 5
 1216.31 592.188 l 5
 1029 260.812 l 5
 975.75 353.25 l 5
 1015.31 404.812 l 5
 1029 380.812 l 5
 1147.12 592.188 l 5
1304.62 592.188 m 5
 1373.81 592.188 l 5
 1029 -12 l 5
 909.75 197.062 l 5
 943.5 256.125 l 5
 1029 108 l 5
 1304.62 592.188 l 5
1459.31 592.188 m 5
 1528.5 592.188 l 5
 1341.19 260.812 l 5
 1287.94 353.25 l 5
 1327.5 404.812 l 5
 1341.19 380.812 l 5
 1459.31 592.188 l 5
1616.81 592.188 m 5
 1686 592.188 l 5
 1341.19 -12 l 5
 1221.94 197.062 l 5
 1255.69 256.125 l 5
 1341.19 108 l 5
 1616.81 592.188 l 5
EndSplineSet
Validated: 524289
EndChar

StartChar: dieresis
Encoding: 168 168 137
Width: 327
Flags: HW
LayerCount: 2
Fore
SplineSet
191.231 788.266 m 1x38
 251.23 788.265 l 1
 251.231 726.265 l 1
 191.232 726.266 l 1
 191.231 788.266 l 1x38
71.2314 788.266 m 1
 131.23 788.265 l 1
 131.231 726.265 l 1
 71.2324 726.266 l 1
 71.2314 788.266 l 1
EndSplineSet
EndChar

StartChar: asciicircum
Encoding: 94 94 138
Width: 718
Flags: HW
LayerCount: 2
Fore
SplineSet
218.231 788.266 m 5
 486.23 788.265 l 5
 486.231 726.265 l 5
 218.232 726.266 l 5
 218.231 788.266 l 5
EndSplineSet
EndChar

StartChar: Euro
Encoding: 8364 8364 139
Width: 577
VWidth: 0
Flags: HW
HStem: -10 60<164.319 236.688 311.664 463.717> 226.25 60<258.125 417.625> 329.938 60<237.062 417.625> 540.875 60<163.991 236.688 311.665 463.716>
VStem: 24.8125 60<129.263 287.487 301.224 461.605> 168.25 60<129.263 226.101 389.938 461.774>
LayerCount: 2
Fore
SplineSet
278.812 600.875 m 0
 303.943 600.875 328.23 596.521 350.812 588.688 c 1
 373.225 596.416 397.061 600.875 422.062 600.875 c 0
 455.572 600.875 487.734 593.205 516.188 579.688 c 1
 490.312 525.5 l 1
 469.664 535.309 446.537 540.875 422.062 540.875 c 0
 377.982 540.875 338.742 523.18 309.938 494.375 c 0
 282.879 467.322 265.453 430.783 263.438 389.938 c 1
 452.625 389.938 l 1
 452.625 329.938 l 1
 272.062 329.938 l 1
 274.863 321.875 278.191 314.117 282.188 306.688 c 2
 289.688 292.438 l 1
 293.125 286.25 l 1
 452.625 286.25 l 1
 452.625 226.25 l 1
 264.188 226.25 l 2
 263.578 220.631 263.25 214.795 263.25 209 c 0
 263.25 164.914 281.133 125.305 309.938 96.5 c 0
 338.742 67.6895 377.982 50 422.062 50 c 0
 446.543 50 469.664 55.5723 490.312 65.375 c 1
 516.188 11 l 1
 487.74 -2.50586 455.578 -10 422.062 -10 c 0
 397.078 -10 373.219 -5.76953 350.812 2 c 1
 328.23 -5.83398 303.949 -10 278.812 -10 c 0
 218.52 -10 163.535 14.5215 123.938 54.125 c 0
 84.3281 93.7227 59.8125 148.701 59.8125 209 c 0
 59.8125 240.963 67.8633 264.963 80.25 292.438 c 1
 67.8164 319.947 59.8125 349.836 59.8125 381.875 c 0
 59.8125 442.162 84.334 497.146 123.938 536.75 c 0
 163.535 576.348 218.52 600.875 278.812 600.875 c 0
270.562 540.688 m 0
 229.811 538.648 193.5 521.381 166.5 494.375 c 0
 137.684 465.564 119.812 425.943 119.812 381.875 c 0
 119.812 354.547 126.691 329.094 138.75 306.688 c 2
 146.25 292.438 l 1
 138.75 284.375 l 2
 121.42 265.745 119.812 236.305 119.812 209 c 0
 119.812 164.914 137.689 125.305 166.5 96.5 c 0
 193.746 69.248 230.484 51.9922 271.688 50.1875 c 1
 270.305 51.5 268.91 52.7773 267.562 54.125 c 0
 227.953 93.7227 203.25 148.701 203.25 209 c 0
 203.25 240.963 211.295 264.963 223.688 292.438 c 1
 211.254 319.947 203.25 349.836 203.25 381.875 c 0
 203.25 442.162 227.953 497.146 267.562 536.75 c 0
 268.91 538.098 270.305 539.375 271.688 540.688 c 1
 271.312 540.67 270.938 540.705 270.562 540.688 c 0
EndSplineSet
EndChar

StartChar: sterling
Encoding: 163 163 140
Width: 536
Flags: HW
HStem: 0 60<133 474.25> 126.562 60<268 474.25> 533 60<133 208>
VStem: 73 60<60 533> 208 60<186.562 533>
LayerCount: 2
Fore
SplineSet
73 0 m 1
 73 593 l 1
 268 593 l 1
 268 186.562 l 1
 474.25 186.562 l 1
 474.25 126.562 l 1
 208 126.562 l 1
 208 533 l 1
 133 533 l 1
 133 60 l 1
 474.25 60 l 1
 474.25 0 l 1
 73 0 l 1
EndSplineSet
EndChar
